<?xml version="1.0" encoding="utf-8"?>
<!-- Generator: Adobe Illustrator 23.0.1, SVG Export Plug-In . SVG Version: 6.00 Build 0)  -->
<svg version="1.1" id="Layer_1" xmlns="http://www.w3.org/2000/svg" xmlns:xlink="http://www.w3.org/1999/xlink" x="0px" y="0px"
	 viewBox="0 0 230.61 232" style="enable-background:new 0 0 230.61 232;" xml:space="preserve">
<style type="text/css">
	.st0{fill:#FFF761;}
	.st1{fill:#FF945F;}
	.st2{opacity:0.25;fill:#FF945F;}
</style>
<circle class="st0" cx="116.29" cy="116.1" r="112.02"/>
<g id="heart">
	<path class="st1" d="M123.32,91.46c-2.07,2.29-5.75,1.98-7.41-0.62c-7.67-11.99-28.85-37.8-59.21-16.78
		c0,0-37.1,23.28,59.32,116.62c1.74,1.69,4.48,1.77,6.32,0.19c16.56-14.3,89.05-80.97,49.77-120.96c-0.26-0.26-0.54-0.49-0.85-0.69
		C168.18,67.27,152.05,59.68,123.32,91.46z"/>
	<path class="st2" d="M172.1,69.91c-0.26-0.26-0.54-0.49-0.85-0.69c-3.07-1.95-19.21-9.54-47.94,22.24c-1.12,1.23-2.7,1.7-4.18,1.48
		V192c1.13,0.04,2.28-0.34,3.2-1.13C138.9,176.57,211.39,109.9,172.1,69.91z"/>
</g>
</svg>
