<?xml version="1.0" encoding="utf-8"?>
<!-- Generator: Adobe Illustrator 23.0.1, SVG Export Plug-In . SVG Version: 6.00 Build 0)  -->
<svg version="1.1" id="Layer_1" xmlns="http://www.w3.org/2000/svg" xmlns:xlink="http://www.w3.org/1999/xlink" x="0px" y="0px"
	 viewBox="0 0 332 334" style="enable-background:new 0 0 332 334;" xml:space="preserve">
<style type="text/css">
	.st0{fill:#FF945F;}
	.st1{fill:#AA6F35;}
	.st2{fill:#DDD7C3;}
	.st3{fill:#EAE4CC;}
	.st4{fill:#3F3F3E;}
	.st5{fill:#664225;}
	.st6{fill:#565249;}
	.st7{fill:#212121;}
	.st8{fill:#F4F4F4;}
	.st9{opacity:0.25;}
	.st10{fill:#D8D2BF;}
	.st11{fill:#333333;}
	.st12{fill:#593821;}
	.st13{opacity:0;}
</style>
<g id="Beagle">
	<circle id="bckgrd_21_" class="st0" cx="166" cy="167" r="166"/>
	<g id="head_33_">
		<path id="head_34_" class="st1" d="M250.17,160c0,16.35-25.97,45.99-34.04,62.48c-14.86,30.37-6.23,50.57-50.08,50.57
			c-43.82,0-35.99-20.2-50.85-50.57C107.13,206,81.94,176.35,81.94,160c0-46.46,0-96.26,84.12-96.26S250.17,113.55,250.17,160z"/>
		<path class="st2" d="M124.5,252.99c0,0,8.48,20.89,36.16,20.89c0,0,34.24,1.27,40.86-13.92l8.3-23.57h-81.01L124.5,252.99z"/>
	</g>
	<path id="snout_18_" class="st3" d="M213.14,231.2c0,15.22-0.29,29.09-15.94,29.09c-10.14,0-17.47-4.98-31.21-4.98
		c-12.89,0-19.5,4.98-29.22,4.98c-16.82,0-17.6-14.21-17.6-30.27c0-16.64,6.83-31.42,18.92-45.75c8.95-10.6,11.12-80.68,27.94-80.68
		c19.17,0,18.1,71.2,26.84,81.01C205.7,198.98,213.14,213.99,213.14,231.2z"/>
	<path id="nose_14_" class="st4" d="M185.61,212.91c0,7.25-8.76,16.21-19.56,16.21c-10.8,0-19.56-8.95-19.56-16.21
		s8.76-10.06,19.56-10.06C176.86,202.86,185.61,205.66,185.61,212.91z"/>
	<g id="ears_31_">
		<g>
			<g>
				<path class="st5" d="M193.18,59.91l17,1.67c9.87,1.71,22.24,5.32,31.41,12.16l38.69,28.89c11.23,8.51,22.71,27.71,11.17,43.61
					l-24.12,50.89c-4.72,9.95-17.44,17.35-26.58,11.2c-3.69-2.48-2.57-12.23-2.69-13.1l4.01-47.85
					c-3.37-24.57-15.26-47.18-33.59-63.87l-18.36-16.72C187.31,64.21,189.39,59.54,193.18,59.91z"/>
			</g>
			<g>
				<path class="st5" d="M137.85,59.91l-17,1.67c-9.87,1.71-22.24,5.32-31.41,12.16l-38.69,28.89
					c-11.23,8.51-22.71,27.71-11.17,43.61l24.12,50.89c4.72,9.95,17.44,17.35,26.58,11.2c3.69-2.48,2.57-12.23,2.69-13.1
					l-4.01-47.85c3.37-24.57,15.26-47.18,33.59-63.87l18.36-16.72C143.72,64.21,141.64,59.54,137.85,59.91z"/>
			</g>
		</g>
	</g>
	<g id="eyes_21_">
		<g id="left_x5F_eye_10_">
			<circle class="st6" cx="124.87" cy="136.91" r="13.3"/>
			<circle class="st7" cx="124.87" cy="136.91" r="9.58"/>
			<circle class="st8" cx="126.26" cy="132.61" r="2.23"/>
		</g>
		<g id="right_x5F_eye_21_">
			<circle class="st6" cx="206.46" cy="136.91" r="13.3"/>
			<circle class="st7" cx="206.46" cy="136.91" r="9.58"/>
			<circle class="st8" cx="208.81" cy="132.61" r="2.23"/>
		</g>
	</g>
	<g id="shadow_31_">
		<g id="head_32_" class="st9">
			<path class="st1" d="M166.05,63.75c-0.29,0-0.58,0-0.87,0v209.31c0.29,0,0.58,0,0.87,0c43.85,0,35.22-20.2,50.08-50.57
				c8.07-16.49,34.04-46.13,34.04-62.48C250.17,113.55,250.17,63.75,166.05,63.75z"/>
			<path class="st2" d="M165.19,236.39v37.48c9.53-0.26,31.21-2.15,36.34-13.9l8.3-23.57H165.19z"/>
		</g>
		<path class="st10" d="M192.89,184.6c-8.74-9.81-7.67-81.01-26.84-81.01c-0.29,0-0.43-0.04-0.72,0l-0.15,151.73
			c0.27,0,0.54-0.01,0.81-0.01c13.74,0,21.07,4.98,31.21,4.98c15.65,0,15.94-13.88,15.94-29.09
			C213.14,213.99,205.7,198.98,192.89,184.6z"/>
		<path class="st11" d="M165.24,202.86c-0.3,0-0.6,0-0.9,0.01v26.23c0.3,0.01,0.6,0.02,0.9,0.02c11.25,0,20.37-8.95,20.37-16.21
			C185.61,205.66,176.49,202.86,165.24,202.86z"/>
		<g id="ears_29_">
			<g>
				<g>
					<path class="st12" d="M193.18,59.91l17,1.67c9.87,1.71,22.24,5.32,31.41,12.16l38.69,28.89c11.23,8.51,22.71,27.71,11.17,43.61
						l-24.12,50.89c-4.72,9.95-17.44,17.35-26.58,11.2c-3.69-2.48-2.57-12.23-2.69-13.1l4.01-47.85
						c-3.37-24.57-15.26-47.18-33.59-63.87l-18.36-16.72C187.31,64.21,189.39,59.54,193.18,59.91z"/>
				</g>
			</g>
		</g>
		<g id="eyes_20_" class="st13">
			<g id="right_x5F_eye_20_">
				<circle class="st6" cx="206.46" cy="136.91" r="13.3"/>
				<circle class="st7" cx="206.46" cy="136.91" r="9.58"/>
				<circle class="st8" cx="208.81" cy="132.61" r="2.23"/>
			</g>
		</g>
	</g>
</g>
</svg>
