<?xml version="1.0" encoding="utf-8"?>
<!-- Generator: Adobe Illustrator 23.0.1, SVG Export Plug-In . SVG Version: 6.00 Build 0)  -->
<svg version="1.1" id="Layer_1" xmlns="http://www.w3.org/2000/svg" xmlns:xlink="http://www.w3.org/1999/xlink" x="0px" y="0px"
	 viewBox="0 0 332 334" style="enable-background:new 0 0 332 334;" xml:space="preserve">
<style type="text/css">
	.st0{fill:#FF945F;}
	.st1{fill:#F4E9D3;}
	.st2{fill:#9B7634;}
	.st3{fill:#D3C7B6;}
	.st4{fill:#111111;}
	.st5{fill:#4F3E20;}
	.st6{fill:#212121;}
	.st7{fill:#F4F4F4;}
	.st8{fill:#84622D;}
	.st9{opacity:0.25;}
	.st10{fill:#C4B9AD;}
	.st11{fill:#0C0C0C;}
	.st12{opacity:0;}
	.st13{fill:#755429;}
</style>
<g id="bulldog">
	<circle id="bckgrd_10_" class="st0" cx="166" cy="167" r="166"/>
	<g id="head_9_">
		<path id="head_10_" class="st1" d="M274.84,185.21c0,19.83-13.54,41.68-23.91,61.68c-19.1,36.83-40.32,45.04-84.21,45.04
			c-44.88,0-65.1-8.21-84.21-45.04c-10.37-20-23.91-41.86-23.91-61.68c0-56.34,0-124.78,108.12-124.78S274.84,128.87,274.84,185.21z
			"/>
		<path class="st2" d="M123.39,65.17c0,0-49.62,6.69-59.83,58.58c0,0-7.56,36.88-4.31,69.28c0,0,1.31,27.03,31.66,68.06l32.47-36.66
			C123.38,224.44,138.88,155.57,123.39,65.17z"/>
		<path class="st2" d="M209.95,65.17c0,0,49.62,6.69,59.83,58.58c0,0,7.56,36.88,4.31,69.28c0,0-1.31,27.03-31.66,68.06
			l-32.47-36.66C209.95,224.44,194.45,155.57,209.95,65.17z"/>
	</g>
	<path id="snout" class="st3" d="M247.98,258.26c0,18.45-17.33,53.48-47.12,37.77c-10.88-5.73-6.31-33.09-33.34-33.09
		c-27.42,0-26.93,27.19-37.38,32.62c-24.16,12.55-39.99-17.81-39.99-37.3c0-20.18,19.17-38.74,33.83-56.11
		c10.85-12.86,23.14-19.73,43.54-19.73c23.25,0,31.41,6.06,42,17.96C225.07,217.82,247.98,237.39,247.98,258.26z"/>
	<path id="nose_5_" class="st4" d="M191.56,211.07c0,9.21-11.12,20.59-24.85,20.59c-13.72,0-24.85-11.37-24.85-20.59
		c0-9.21,11.12-12.78,24.85-12.78C180.44,198.29,191.56,201.86,191.56,211.07z"/>
	<g id="eyes_7_">
		<g id="left_x5F_eye_3_">
			<circle class="st5" cx="113.78" cy="172.55" r="14.52"/>
			<circle class="st6" cx="113.78" cy="172.55" r="10.45"/>
			<circle class="st7" cx="115.31" cy="167.86" r="2.44"/>
		</g>
		<g id="right_x5F_eye_7_">
			<circle class="st5" cx="219.7" cy="172.55" r="14.52"/>
			<circle class="st6" cx="219.7" cy="172.55" r="10.45"/>
			<circle class="st7" cx="222.27" cy="167.86" r="2.44"/>
		</g>
	</g>
	<g id="ears_10_">
		<path class="st8" d="M125.61,59.66l-15.51,1.46c-9.01,1.5-20.29,4.66-28.65,10.64l-35.3,25.28
			c-10.24,7.44-20.72,24.25-10.19,38.16l33.13,40.94c1.96,2.42,6,1.39,6.43-1.65L81,136.19c3.07-21.5,13.92-41.28,30.64-55.89
			l16.75-14.63C130.97,63.43,129.07,59.33,125.61,59.66z"/>
		<path class="st8" d="M210.52,58.45l15.43,2.07c8.94,1.85,20.07,5.45,28.17,11.77l34.18,26.65c9.91,7.84,19.66,25.05,8.55,38.53
			l-34.86,39.59c-2.06,2.34-6.05,1.15-6.36-1.91l-3.82-38.47c-2.15-21.6-12.13-41.8-28.22-57.05l-16.11-15.28
			C205.01,62,207.07,57.99,210.52,58.45z"/>
	</g>
	<g id="shadow_29_">
		<g id="head_8_" class="st9">
			<path class="st1" d="M166.39,60.43c-0.17,0-0.33,0-0.5,0v231.5c0.17,0,0.33,0,0.5,0c43.88,0,65.1-8.21,84.21-45.04
				c10.37-20,23.91-41.86,23.91-61.68C274.51,128.87,274.51,60.43,166.39,60.43z"/>
			<path class="st2" d="M209.61,65.17c0,0,49.62,6.69,59.83,58.58c0,0,7.56,36.88,4.31,69.28c0,0-1.31,27.03-31.66,68.06
				l-32.47-36.66C209.62,224.44,194.12,155.57,209.61,65.17z"/>
		</g>
		<path class="st10" d="M209.2,200.38c-10.6-11.89-18.76-17.96-42-17.96c-0.44,0-0.87,0.01-1.3,0.01v80.53
			c0.43-0.01,0.86-0.02,1.3-0.02c27.03,0,22.46,27.36,33.34,33.09c29.79,15.7,47.12-19.32,47.12-37.77
			C247.65,237.39,224.74,217.82,209.2,200.38z"/>
		<path class="st11" d="M166.39,198.29c-0.17,0-0.33,0-0.49,0v33.35c0.16,0,0.33,0.01,0.49,0.01c13.72,0,24.85-11.37,24.85-20.59
			C191.23,201.86,180.11,198.29,166.39,198.29z"/>
		<g id="eyes_6_" class="st12">
			<g id="right_x5F_eye_6_">
				<circle class="st5" cx="219.37" cy="172.55" r="14.52"/>
				<circle class="st6" cx="219.37" cy="172.55" r="10.45"/>
				<circle class="st7" cx="221.94" cy="167.86" r="2.44"/>
			</g>
		</g>
		<g id="ears_5_">
			<path class="st13" d="M210.19,58.45l15.43,2.07c8.94,1.85,20.07,5.45,28.17,11.77l34.18,26.65c9.91,7.84,19.66,25.05,8.55,38.53
				l-34.86,39.59c-2.06,2.34-6.05,1.15-6.36-1.91l-3.82-38.47c-2.15-21.6-12.13-41.8-28.22-57.05l-16.11-15.28
				C204.67,62,206.74,57.99,210.19,58.45z"/>
		</g>
	</g>
</g>
</svg>
