<?xml version="1.0" encoding="utf-8"?>
<!-- Generator: Adobe Illustrator 23.0.1, SVG Export Plug-In . SVG Version: 6.00 Build 0)  -->
<svg version="1.1" id="Layer_1" xmlns="http://www.w3.org/2000/svg" xmlns:xlink="http://www.w3.org/1999/xlink" x="0px" y="0px"
	 viewBox="0 0 230.61 232" style="enable-background:new 0 0 230.61 232;" xml:space="preserve">
<style type="text/css">
	.st0{fill:#FFF761;}
	.st1{fill:#18535B;}
	.st2{fill:#FF945F;}
	.st3{opacity:0.25;}
</style>
<circle class="st0" cx="116.29" cy="116.1" r="112.02"/>
<g id="lion_2_">
	<g id="lion">
		<path class="st1" d="M195.18,128.83L195.18,128.83c10.96,7.51,5.38,24.67-7.9,24.31h0c-9.36-0.26-16.06,8.96-12.92,17.78l0,0
			c4.45,12.52-10.15,23.13-20.68,15.02l0,0c-7.42-5.71-18.26-2.19-20.9,6.79l0,0c-3.75,12.74-21.8,12.74-25.56,0l0,0
			c-2.65-8.98-13.49-12.5-20.9-6.79l0,0c-10.53,8.1-25.13-2.51-20.68-15.02l0,0c3.14-8.82-3.56-18.04-12.92-17.78h0
			c-13.28,0.37-18.86-16.8-7.9-24.31l0,0c7.72-5.29,7.72-16.69,0-21.98l0,0c-10.96-7.51-5.38-24.67,7.9-24.31l0,0
			c9.36,0.26,16.06-8.96,12.92-17.78l0,0c-4.45-12.52,10.15-23.13,20.68-15.02l0,0c7.42,5.71,18.26,2.19,20.9-6.79l0,0
			c3.75-12.74,21.8-12.74,25.56,0l0,0c2.65,8.98,13.49,12.5,20.9,6.79l0,0c10.53-8.1,25.13,2.51,20.68,15.02l0,0
			c-3.14,8.82,3.56,18.04,12.92,17.78l0,0c13.28-0.37,18.86,16.8,7.9,24.31l0,0C187.46,112.14,187.46,123.54,195.18,128.83z"/>
		<path class="st2" d="M156.29,93.62c3.59-2.62,5.94-6.85,5.94-11.64c0-7.96-6.45-14.41-14.41-14.41c-6.51,0-12.01,4.32-13.79,10.25
			c-4.42-1.43-9.13-2.21-14.02-2.21c-6.04,0-11.81,1.19-17.09,3.32c-1.4-6.5-7.17-11.37-14.08-11.37c-7.96,0-14.41,6.45-14.41,14.41
			c0,5.76,3.39,10.72,8.28,13.03c-5.21,7.41-8.28,16.44-8.28,26.18c0,25.17,20.41,45.58,45.58,45.58s45.58-20.41,45.58-45.58
			C165.58,110.82,162.11,101.27,156.29,93.62z"/>
		<circle class="st1" cx="103.24" cy="112.47" r="6.03"/>
		<circle class="st1" cx="135.42" cy="112.47" r="6.03"/>
		<path class="st1" d="M122.39,136.47l1.26-2.19c1.36-2.35-0.34-5.29-3.06-5.29h-2.52c-2.72,0-4.41,2.94-3.06,5.29l1.26,2.19
			C117.63,138.83,121.03,138.83,122.39,136.47z"/>
	</g>
	<g id="lion_1_" class="st3">
		<path class="st1" d="M195.18,128.16L195.18,128.16c-7.72-5.29-7.72-16.69,0-21.98l0,0c10.96-7.51,5.38-24.67-7.9-24.31h0
			c-9.36,0.26-16.06-8.96-12.92-17.78l0,0c4.45-12.52-10.15-23.13-20.68-15.02l0,0c-7.42,5.71-18.26,2.19-20.9-6.79l0,0
			c-2.08-7.05-8.52-10.19-14.5-9.44V201.5c5.98,0.75,12.43-2.4,14.5-9.44l0,0c2.65-8.98,13.49-12.5,20.9-6.79l0,0
			c10.53,8.1,25.13-2.51,20.68-15.02l0,0c-3.14-8.82,3.56-18.04,12.92-17.78h0C200.56,152.83,206.14,135.67,195.18,128.16z"/>
		<path class="st2" d="M156.29,92.95c3.59-2.62,5.94-6.85,5.94-11.64c0-7.96-6.45-14.41-14.41-14.41c-6.51,0-12.01,4.32-13.79,10.25
			c-4.42-1.43-9.13-2.21-14.02-2.21c-0.58,0-1.15,0.02-1.73,0.04v91.07c0.57,0.02,1.15,0.04,1.73,0.04
			c25.17,0,45.58-20.41,45.58-45.58C165.58,110.15,162.11,100.6,156.29,92.95z"/>
		<circle class="st1" cx="135.42" cy="111.8" r="6.03"/>
		<path class="st1" d="M122.61,128.33h-4.33v10.15c1.06,0.52,2.44,0.22,3.1-0.93l3.28-5.68
			C125.56,130.3,124.43,128.33,122.61,128.33z"/>
	</g>
</g>
</svg>
