<?xml version="1.0" encoding="utf-8"?>
<!-- Generator: Adobe Illustrator 23.0.1, SVG Export Plug-In . SVG Version: 6.00 Build 0)  -->
<svg version="1.1" id="Layer_1" xmlns="http://www.w3.org/2000/svg" xmlns:xlink="http://www.w3.org/1999/xlink" x="0px" y="0px"
	 viewBox="0 0 230.61 232" style="enable-background:new 0 0 230.61 232;" xml:space="preserve">
<style type="text/css">
	.st0{fill:#18535B;}
	.st1{fill:#FF945F;}
	.st2{opacity:0.25;fill:#FF945F;}
</style>
<circle class="st0" cx="115.64" cy="115.7" r="114.12"/>
<g id="size_24_">
	<path id="size_25_" class="st1" d="M96.67,115.41c0,0,2.16-0.29,3.81,0.12c1.51,0.38,7.62,3.11,6.97,4.26
		c-3.4,6.04-3.61-0.3-3.58,0.16c0.27,5.02,12.17,3.24,24.23,4.95c0,0,8.42-0.53,6.43-9c-0.08-0.33,0.38-0.52,0.55-0.22
		c1.5,2.74,1.7,9.06-5.21,11.94c0,0,0.01,3.94-0.85,6.03c-1.01,2.45-2.9,3.54-3.34,13.18c0,0-3.92,1.98-4.99,0.44
		c-0.36-0.51,1.54-1.68,1.43-3.09c-0.14-1.69-1.7-6.87-1.5-10.6c0.01-0.16-3.16,1.22-3.84,1.39c-0.13,0.03-0.25,0.08-0.37,0.13
		c-0.81,0.36-3.7,1.22-9.62-0.85l-0.75,11.3c0,0-3.01,3.49-4.55,0.54c-0.18-0.34,1.49-0.92,1.31-1.44L101.81,133l-3.56-6.93
		c0,0-6.86,4.11-8.99-2.72c-0.17-0.54,2.74-1.38,3.25-1.97C92.51,121.37,92.79,116.05,96.67,115.41z"/>
	<path id="shadow_37_" class="st2" d="M135.08,115.68c-0.16-0.3-0.63-0.12-0.55,0.22c1.99,8.47-6.43,9-6.43,9
		c-5.33-0.75-10.63-0.83-14.91-1.11v11.8c1.76,0.04,2.78-0.29,3.21-0.48c0.12-0.05,0.24-0.1,0.37-0.13
		c0.67-0.17,3.85-1.55,3.84-1.39c-0.2,3.73,1.36,8.91,1.5,10.6c0.12,1.41-1.78,2.58-1.43,3.09c1.07,1.54,4.99-0.44,4.99-0.44
		c0.44-9.64,2.34-10.73,3.34-13.18c0.86-2.1,0.85-6.03,0.85-6.03C136.78,124.74,136.58,118.42,135.08,115.68z"/>
</g>
</svg>
