<?xml version="1.0" encoding="utf-8"?>
<!-- Generator: Adobe Illustrator 23.0.1, SVG Export Plug-In . SVG Version: 6.00 Build 0)  -->
<svg version="1.1" id="Layer_1" xmlns="http://www.w3.org/2000/svg" xmlns:xlink="http://www.w3.org/1999/xlink" x="0px" y="0px"
	 viewBox="0 0 332 334" style="enable-background:new 0 0 332 334;" xml:space="preserve">
<style type="text/css">
	.st0{fill:#FF945F;}
	.st1{fill:#444443;}
	.st2{fill:#353535;}
	.st3{fill:#111111;}
	.st4{fill:#896E37;}
	.st5{fill:#212121;}
	.st6{fill:#F4F4F4;}
	.st7{fill:#8C6C6C;}
	.st8{opacity:0.25;fill:#444443;}
	.st9{fill:#282828;}
	.st10{fill:#0C0C0C;}
	.st11{opacity:0;}
	.st12{fill:#383838;}
	.st13{fill:#7C6262;}
</style>
<g id="french_x5F_bulldog">
	<circle id="bckgrd_26_" class="st0" cx="166" cy="167" r="166"/>
	<path id="head_40_" class="st1" d="M250.17,196.19c0,16.35-10.53,34.37-18.6,50.86c-14.86,30.37-31.37,37.14-65.51,37.14
		c-34.91,0-50.65-6.77-65.51-37.14c-8.07-16.49-18.6-34.51-18.6-50.86c0-46.46,0-102.9,84.12-102.9S250.17,149.74,250.17,196.19z"/>
	<path id="snout_22_" class="st2" d="M233.06,256.43c0,15.22-23.57,39.72-48.14,26.77c-8.97-4.73-4.47-22.91-18.21-22.91
		c-12.89,0-12.68,18.04-21.3,22.52c-19.92,10.35-42.5-10.31-42.5-26.38c0-16.64,15.81-31.94,27.9-46.27
		c8.95-10.6,19.08-16.27,35.9-16.27c19.17,0,25.9,5,34.64,14.81C214.17,223.08,233.06,239.22,233.06,256.43z"/>
	<path id="nose_17_" class="st3" d="M181.94,217.14c0,5.89-7.11,13.16-15.88,13.16c-8.77,0-15.88-7.27-15.88-13.16
		s7.11-8.17,15.88-8.17C174.83,208.98,181.94,211.26,181.94,217.14z"/>
	<g id="eyes_25_">
		<g id="left_x5F_eye_12_">
			<circle class="st4" cx="117.96" cy="184.39" r="14.38"/>
			<circle class="st5" cx="117.96" cy="184.39" r="10.36"/>
			<circle class="st6" cx="119.47" cy="179.73" r="2.41"/>
		</g>
		<g id="right_x5F_eye_25_">
			<circle class="st4" cx="213.37" cy="184.39" r="14.38"/>
			<circle class="st5" cx="213.37" cy="184.39" r="10.36"/>
			<circle class="st6" cx="215.91" cy="179.73" r="2.41"/>
		</g>
	</g>
	<g id="ears_36_">
		<g id="right_x5F_ear_2_">
			<path class="st1" d="M275.91,110.23c-4.07,8.82-0.24,21.39-4.32,30.21c-4.58,9.91-17.06,16.07-21.64,25.99
				c-0.16,0.4-0.34,0.64-0.55,0.65c-0.87,0.05-1.75-4.07-3.02-5.95l-36.54-54.21c-1.64-2.43,1.52-5.62,3.65-7.64l25.9-32.2
				c1.68-1.59,26.56-28.88,34.77-17.82c3.89,5.25,8.05,16.49,9.07,22.16C284.13,76.45,278.04,105.71,275.91,110.23z"/>
			<path class="st7" d="M269.52,110.86c-3.13,6.77-0.19,16.42-3.31,23.19c-3.51,7.61-13.09,12.34-16.61,19.95
				c-0.12,0.31-0.26,0.49-0.43,0.5c-0.34,0.02-3.01-6.77-5.7-13.68c-3.6-9.25-9.43-17.47-16.98-23.92l-4.7-4.01
				c-1.26-1.87-1.82-8.88-0.19-10.43l19.88-24.72c1.29-1.22,20.39-22.17,26.69-13.68c2.99,4.03,6.18,12.66,6.96,17.01
				C275.82,84.94,271.15,107.39,269.52,110.86z"/>
		</g>
		<g id="left_x5F_ear_1_">
			<path class="st1" d="M56.44,109.9c4.07,8.82,0.24,21.39,4.32,30.21c4.58,9.91,17.06,16.07,21.64,25.99
				c0.16,0.4,0.34,0.64,0.55,0.65c0.87,0.05,1.75-4.07,3.02-5.95l36.54-54.21c1.64-2.43-1.52-5.62-3.65-7.64l-25.9-32.2
				c-1.68-1.59-26.56-28.88-34.77-17.82c-3.89,5.25-8.05,16.49-9.07,22.16C48.22,76.12,54.31,105.38,56.44,109.9z"/>
			<path class="st7" d="M62.83,110.53c3.13,6.77,0.19,16.42,3.31,23.19c3.51,7.61,13.09,12.34,16.61,19.95
				c0.12,0.31,0.26,0.49,0.43,0.5c0.34,0.02,3.01-6.77,5.7-13.68c3.6-9.25,9.43-17.47,16.98-23.92l4.7-4.01
				c1.26-1.87,1.82-8.88,0.19-10.43L90.87,77.4c-1.29-1.22-20.39-22.17-26.69-13.68c-2.99,4.03-6.18,12.66-6.96,17.01
				C56.53,84.61,61.2,107.06,62.83,110.53z"/>
		</g>
	</g>
	<g id="shadow_21_">
		<path class="st8" d="M166.05,93.3c-0.17,0-0.34,0-0.51,0v190.9c0.17,0,0.34,0,0.51,0c34.14,0,50.65-6.77,65.51-37.14
			c8.07-16.49,18.6-34.51,18.6-50.86C250.17,149.74,250.17,93.3,166.05,93.3z"/>
		<path class="st9" d="M201.36,208.7c-8.74-9.81-15.47-14.81-34.64-14.81c-0.4,0-0.79,0.01-1.18,0.01v66.44
			c0.38-0.03,0.77-0.05,1.18-0.05c13.74,0,9.24,18.18,18.21,22.91c24.57,12.95,48.14-11.55,48.14-26.77
			C233.06,239.22,214.17,223.08,201.36,208.7z"/>
		<path class="st10" d="M166.05,208.98c-0.17,0-0.34,0-0.51,0v21.31c0.17,0.01,0.34,0.01,0.51,0.01c8.77,0,15.88-7.27,15.88-13.16
			C181.94,211.26,174.83,208.98,166.05,208.98z"/>
		<g id="eyes_24_" class="st11">
			<g id="right_x5F_eye_24_">
				<circle class="st4" cx="213.37" cy="184.39" r="14.38"/>
				<circle class="st5" cx="213.37" cy="184.39" r="10.36"/>
				<circle class="st6" cx="215.91" cy="179.73" r="2.41"/>
			</g>
		</g>
		<g id="ears_35_">
			<g id="right_x5F_ear_1_">
				<path class="st12" d="M275.91,110.23c-4.07,8.82-0.24,21.39-4.32,30.21c-4.58,9.91-17.06,16.07-21.64,25.99
					c-0.16,0.4-0.34,0.64-0.55,0.65c-0.87,0.05-1.75-4.07-3.02-5.95l-36.54-54.21c-1.64-2.43,1.52-5.62,3.65-7.64l25.9-32.2
					c1.68-1.59,26.56-28.88,34.77-17.82c3.89,5.25,8.05,16.49,9.07,22.16C284.13,76.45,278.04,105.71,275.91,110.23z"/>
				<path class="st13" d="M269.52,110.86c-3.13,6.77-0.19,16.42-3.31,23.19c-3.51,7.61-13.09,12.34-16.61,19.95
					c-0.12,0.31-0.26,0.49-0.43,0.5c-0.34,0.02-3.01-6.77-5.7-13.68c-3.6-9.25-9.43-17.47-16.98-23.92l-4.7-4.01
					c-1.26-1.87-1.82-8.88-0.19-10.43l19.88-24.72c1.29-1.22,20.39-22.17,26.69-13.68c2.99,4.03,6.18,12.66,6.96,17.01
					C275.82,84.94,271.15,107.39,269.52,110.86z"/>
			</g>
		</g>
	</g>
</g>
</svg>
