<?xml version="1.0" encoding="utf-8"?>
<!-- Generator: Adobe Illustrator 23.0.1, SVG Export Plug-In . SVG Version: 6.00 Build 0)  -->
<svg version="1.1" id="Layer_1" xmlns="http://www.w3.org/2000/svg" xmlns:xlink="http://www.w3.org/1999/xlink" x="0px" y="0px"
	 viewBox="0 0 230.61 232" style="enable-background:new 0 0 230.61 232;" xml:space="preserve">
<style type="text/css">
	.st0{fill:#FFF761;}
	.st1{fill:#FF945F;}
	.st2{fill:#18535B;}
	.st3{opacity:0.25;}
</style>
<circle class="st0" cx="116.2" cy="116.1" r="112.02"/>
<g id="friendly_4_">
	<g id="friendly_6_">
		<circle class="st1" cx="116" cy="116" r="65"/>
		<circle class="st2" cx="93.39" cy="97.35" r="9.04"/>
		<circle class="st2" cx="139.74" cy="97.35" r="9.04"/>
		<path class="st2" d="M158.39,123.35c0,21.85-20.54,35.61-42.39,35.61s-42.39-13.76-42.39-35.61S80.96,143.7,116,143.7
			S158.39,101.5,158.39,123.35z"/>
	</g>
	<g id="friendly_5_" class="st3">
		<path class="st1" d="M116,51c-0.28,0-0.55,0.01-0.83,0.01v129.98c0.28,0,0.55,0.01,0.83,0.01c35.9,0,65-29.1,65-65
			S151.9,51,116,51z"/>
		<circle class="st2" cx="139.74" cy="97.35" r="9.04"/>
		<path class="st2" d="M116,143.7c-0.28,0-0.55-0.01-0.83-0.02v15.26c0.28,0,0.55,0.02,0.83,0.02c21.85,0,42.39-13.76,42.39-35.61
			C158.39,101.5,151.04,143.7,116,143.7z"/>
	</g>
</g>
</svg>
