<?xml version="1.0" encoding="utf-8"?>
<!-- Generator: Adobe Illustrator 23.0.1, SVG Export Plug-In . SVG Version: 6.00 Build 0)  -->
<svg version="1.1" id="Layer_1" xmlns="http://www.w3.org/2000/svg" xmlns:xlink="http://www.w3.org/1999/xlink" x="0px" y="0px"
	 viewBox="0 0 332 334" style="enable-background:new 0 0 332 334;" xml:space="preserve">
<style type="text/css">
	.st0{fill:#FF945F;}
	.st1{fill:#997733;}
	.st2{fill:#333333;}
	.st3{fill:#0A0A0A;}
	.st4{fill:#665A42;}
	.st5{fill:#212121;}
	.st6{fill:#F4F4F4;}
	.st7{opacity:0.25;fill:#997733;}
	.st8{opacity:0.25;fill:#333333;}
	.st9{opacity:0.25;fill:#0A0A0A;}
	.st10{opacity:0;}
	.st11{fill:#84652F;}
	.st12{fill:#282828;}
</style>
<g id="German_x5F_Shepherd">
	<circle id="bckgrd_30_" class="st0" cx="167" cy="167" r="165"/>
	<path id="head_44_" class="st1" d="M167.01,86.62L167.01,86.62c-0.02,0-0.04,0-0.05,0s-0.04,0-0.05,0v0
		c-81.42,0.05-81.42,54.72-81.42,99.73c0,15.85-7.82,33.01,0,48.99c0,0,19.69,35.02,31.6,46.93l2.9-12.55
		c0,0,1.93,27.67,14.48,34.11l1.93-5.47c0,0,8.04,12.87,30.57,26.39c22.53-13.52,30.57-26.39,30.57-26.39l2.57,5.15
		c12.55-6.44,13.84-33.79,13.84-33.79l4.18,11.91c11.91-11.91,30.31-45.05,30.31-45.05c7.82-15.99,0-34.38,0-50.22
		C248.44,141.34,248.43,86.67,167.01,86.62z"/>
	<path id="snout_26_" class="st2" d="M202.52,235.65c0,12.85-0.86,15.87-9.02,15.87c-8.56,0-14.39-1.92-25.99-1.92
		c-10.88,0-17.92,1.59-26.12,1.59c-5.6,0-10.01-1.98-10.01-15.54c0-14.05,4.41-27.01,4.41-32.06c0-7.02-38.26-53.11-22.98-68.39
		c29.48-29.48,41.48,24.94,54.7,24.94c9.76,0,23.92-50.31,51.52-22.7c18.22,18.22-21.86,58.33-21.86,64.91
		C197.17,206.67,202.52,221.11,202.52,235.65z"/>
	<path id="nose_20_" class="st3" d="M184.56,224.52c0,6.53-7.88,14.59-17.61,14.59s-17.61-8.06-17.61-14.59
		c0-6.53,7.88-9.06,17.61-9.06S184.56,217.99,184.56,224.52z"/>
	<g id="eyes_29_">
		<g id="left_x5F_eye_14_">
			<circle class="st4" cx="132.17" cy="156.61" r="11.23"/>
			<circle class="st5" cx="132.17" cy="156.61" r="8.09"/>
			<circle class="st6" cx="133.35" cy="152.97" r="1.89"/>
		</g>
		<g id="right_x5F_eye_29_">
			<circle class="st4" cx="201.06" cy="156.61" r="11.23"/>
			<circle class="st5" cx="201.06" cy="156.61" r="8.09"/>
			<circle class="st6" cx="203.04" cy="152.97" r="1.89"/>
		</g>
	</g>
	<g id="ears_42_">
		<g id="left_x5F_ear_4_">
			<path class="st1" d="M80.84,55.95l8.22,82.19c0.2,2.73,2.88-2.2,5.05-3.86l49.36-37.66c2.32-1.77,3.02-4.96,1.65-7.53L118,30.22
				c-1.07-2.03-6.43-23.23-14.42-10.12c-3.38,5.55-12.83,12.96-15.6,17.98C85.53,42.54,80.27,51.01,80.84,55.95z"/>
			<path class="st2" d="M88.58,62.57l4.45,60.23c0.15,2,2.11-1.61,3.7-2.83l36.17-27.6c1.7-1.3,2.21-3.63,1.21-5.52l-19.87-43.14
				c-0.79-1.49-4.71-17.02-10.57-7.42c-2.48,4.06-9.4,9.5-11.43,13.18C90.44,52.74,88.16,58.95,88.58,62.57z"/>
		</g>
		<g id="right_x5F_ear_8_">
			<path class="st1" d="M253.8,55.95l-9.06,82.19c-0.2,2.73-2.88-2.2-5.05-3.86l-49.36-37.66c-2.32-1.77-3.02-4.96-1.65-7.53
				l27.12-58.87c1.07-2.03,6.43-23.23,14.42-10.12c3.38,5.55,12.83,12.96,15.6,17.98C248.26,42.54,254.36,51.01,253.8,55.95z"/>
			<path class="st2" d="M245.1,62.7l-4.41,59.69c-0.15,1.98-2.09-1.6-3.67-2.8l-35.85-27.35c-1.68-1.28-2.19-3.6-1.2-5.47
				l19.69-42.75c0.78-1.47,4.67-16.87,10.47-7.35c2.46,4.03,9.32,9.41,11.33,13.06C243.25,52.97,245.51,59.12,245.1,62.7z"/>
		</g>
	</g>
	<g id="shadow_16_">
		<path class="st7" d="M248.79,186.35c0-45.01,0-99.68-81.42-99.73v0c-0.02,0-0.04,0-0.05,0c-0.02,0-0.04,0-0.05,0v0
			c-0.33,0-0.66,0-0.99,0.01v237.49c0.34,0.21,0.69,0.42,1.04,0.63c22.53-13.52,30.57-26.39,30.57-26.39l2.57,5.15
			c12.55-6.44,13.84-33.79,13.84-33.79l4.18,11.91c11.91-11.91,30.31-45.05,30.31-45.05C256.62,220.59,248.79,202.19,248.79,186.35z
			"/>
		<path class="st8" d="M219.39,137.44c-27.61-27.61-41.76,22.7-51.52,22.7c-0.53,0-1.06-0.09-1.59-0.26v89.72
			c0.52-0.01,1.05-0.01,1.59-0.01c11.6,0,17.43,1.92,25.99,1.92c8.16,0,9.02-3.03,9.02-15.87c0-14.53-5.35-28.97-5.35-33.29
			C197.53,195.78,237.61,155.66,219.39,137.44z"/>
		<path class="st9" d="M167.3,215.46c-0.35,0-0.69,0-1.03,0.01v23.61c0.34,0.02,0.68,0.03,1.03,0.03c9.73,0,17.61-8.06,17.61-14.59
			S177.03,215.46,167.3,215.46z"/>
		<g id="eyes_28_" class="st10">
			<g id="right_x5F_eye_28_" class="st10">
				<circle class="st4" cx="201.41" cy="156.61" r="11.23"/>
				<circle class="st5" cx="201.41" cy="156.61" r="8.09"/>
				<circle class="st6" cx="203.4" cy="152.97" r="1.89"/>
			</g>
		</g>
		<g id="ears_41_">
			<g id="right_x5F_ear_7_">
				<path class="st11" d="M254.15,55.95l-9.06,82.19c-0.2,2.73-2.88-2.2-5.05-3.86l-49.36-37.66c-2.32-1.77-3.02-4.96-1.65-7.53
					l27.12-58.87c1.07-2.03,6.43-23.23,14.42-10.12c3.38,5.55,12.83,12.96,15.6,17.98C248.62,42.54,254.72,51.01,254.15,55.95z"/>
				<path class="st12" d="M245.46,62.7l-4.41,59.69c-0.15,1.98-2.09-1.6-3.67-2.8l-35.85-27.35c-1.68-1.28-2.19-3.6-1.2-5.47
					l19.69-42.75c0.78-1.47,4.67-16.87,10.47-7.35c2.46,4.03,9.32,9.41,11.33,13.06C243.61,52.97,245.87,59.12,245.46,62.7z"/>
			</g>
		</g>
	</g>
</g>
</svg>
