<?xml version="1.0" encoding="utf-8"?>
<!-- Generator: Adobe Illustrator 23.0.1, SVG Export Plug-In . SVG Version: 6.00 Build 0)  -->
<svg version="1.1" id="Layer_1" xmlns="http://www.w3.org/2000/svg" xmlns:xlink="http://www.w3.org/1999/xlink" x="0px" y="0px"
	 viewBox="0 0 332 334" style="enable-background:new 0 0 332 334;" xml:space="preserve">
<style type="text/css">
	.st0{fill:#FF945F;}
	.st1{fill:#B7A249;}
	.st2{fill:#9E8A35;}
	.st3{fill:#1E1E1E;}
	.st4{fill:#564931;}
	.st5{fill:#212121;}
	.st6{fill:#F4F4F4;}
	.st7{opacity:0.25;fill:#B7A249;}
	.st8{opacity:0.25;fill:#9E8A35;}
	.st9{opacity:0.25;fill:#1E1E1E;}
	.st10{opacity:0.25;}
	.st11{fill:#8E7C32;}
</style>
<g id="Golden_x5F_Retriever">
	<circle id="bckgrd_7_" class="st0" cx="166" cy="167" r="166"/>
	<path id="head" class="st1" d="M166.02,50.14L166.02,50.14c-0.02,0-0.04,0-0.06,0c-0.02,0-0.04,0-0.06,0v0
		c-92.23,0.05-92.23,61.98-92.23,112.97c0,17.95-8.86,37.39,0,55.49c0,0,22.31,39.67,35.79,53.15l3.28-14.22
		c0,0,2.19,31.35,16.4,38.64l2.19-6.2c0,0,9.11,14.58,34.63,29.89c25.51-15.31,34.63-29.89,34.63-29.89l2.92,5.83
		c14.22-7.29,15.67-38.27,15.67-38.27l4.74,13.49c13.49-13.49,34.33-51.03,34.33-51.03c8.86-18.11,0-38.94,0-56.89
		C258.25,112.12,258.25,50.19,166.02,50.14z"/>
	<path id="snout_4_" class="st2" d="M212.86,204.22c0,13.97,3.95,32.5-10.42,32.5c-9.31,0-25.1-8.79-37.72-8.79
		c-11.83,0-27.72,8.44-36.64,8.44c-15.45,0-11.49-17.39-11.49-32.14c0-15.28,7.12-29.33,18.22-42.48
		c8.21-9.74,14.47-51.63,29.92-51.63c17.6,0,20.73,41.29,28.75,50.29C205.25,173.6,212.86,188.41,212.86,204.22z"/>
	<path id="nose" class="st3" d="M192.72,192.81c0,9.85-11.9,22.02-26.57,22.02c-14.68,0-26.57-12.16-26.57-22.02
		c0-9.85,11.9-13.67,26.57-13.67C180.83,179.14,192.72,182.96,192.72,192.81z"/>
	<g id="eyes">
		<g id="left_x5F_eye">
			<circle class="st4" cx="124.7" cy="128.72" r="13.33"/>
			<circle class="st5" cx="124.7" cy="128.72" r="9.6"/>
			<circle class="st6" cx="126.1" cy="124.41" r="2.24"/>
		</g>
		<g id="right_x5F_eye">
			<circle class="st4" cx="206.45" cy="128.72" r="13.33"/>
			<circle class="st5" cx="206.45" cy="128.72" r="9.6"/>
			<circle class="st6" cx="208.81" cy="124.41" r="2.24"/>
		</g>
	</g>
	<g id="ears">
		<g>
			<g>
				<path class="st2" d="M127.56,50.95l-17,1.67c-9.87,1.71-22.24,5.32-31.41,12.16L40.46,93.66
					c-11.23,8.51-22.71,27.71-11.17,43.61l30.68,61.72c2.15,2.77,6.58,1.58,7.05-1.89l11.64-58.69
					c3.37-24.57,15.26-47.18,33.59-63.87l18.36-16.72C133.43,55.25,131.35,50.57,127.56,50.95z"/>
			</g>
			<g>
				<path class="st2" d="M206.85,49.56l16.92,2.36c9.8,2.12,22.01,6.23,30.88,13.45l37.47,30.45c10.87,8.96,21.55,28.62,9.37,44.03
					l-29.92,52.89c-2.26,2.68-6.64,1.31-6.97-2.18l-12.49-51.6c-2.35-24.69-13.3-47.77-30.94-65.2L203.51,56.3
					C200.8,53.62,203.07,49.03,206.85,49.56z"/>
			</g>
		</g>
	</g>
	<g id="shadow_18_">
		<path class="st7" d="M258.25,163.1c0-50.98,0-112.91-92.23-112.97v0c-0.02,0-0.04,0-0.06,0s-0.04,0-0.06,0v0
			c-0.3,0-0.59,0-0.89,0.01v269.14c0.31,0.19,0.63,0.38,0.95,0.57c25.51-15.31,34.63-29.89,34.63-29.89l2.92,5.83
			c14.22-7.29,15.67-38.27,15.67-38.27l4.74,13.49c13.49-13.49,34.33-51.03,34.33-51.03C267.11,201.88,258.25,181.05,258.25,163.1z"
			/>
		<path class="st8" d="M212.86,204.22c0-15.81-7.62-30.62-19.38-43.82c-7.98-8.96-11.12-49.84-28.47-50.28v117.82
			c12.57,0.13,28.2,8.79,37.44,8.79C216.82,236.72,212.86,218.19,212.86,204.22z"/>
		<path class="st9" d="M166.15,179.14c-0.38,0-0.76,0-1.14,0.01v35.64c0.38,0.02,0.76,0.03,1.14,0.03
			c14.68,0,26.57-12.16,26.57-22.02S180.83,179.14,166.15,179.14z"/>
		<g id="eyes_5_" class="st10">
			<g id="right_x5F_eye_5_">
				<circle class="st4" cx="206.45" cy="128.72" r="13.33"/>
				<circle class="st5" cx="206.45" cy="128.72" r="9.6"/>
				<circle class="st6" cx="208.81" cy="124.41" r="2.24"/>
			</g>
		</g>
		<g id="ears_4_">
			<g>
				<g>
					<path class="st11" d="M206.85,49.56l16.92,2.36c9.8,2.12,22.01,6.23,30.88,13.45l37.47,30.45
						c10.87,8.96,21.55,28.62,9.37,44.03l-29.92,52.89c-2.26,2.68-6.64,1.31-6.97-2.18l-12.49-51.6
						c-2.35-24.69-13.3-47.77-30.94-65.2L203.51,56.3C200.8,53.62,203.07,49.03,206.85,49.56z"/>
				</g>
			</g>
		</g>
	</g>
</g>
</svg>
