<?xml version="1.0" encoding="utf-8"?>
<!-- Generator: Adobe Illustrator 23.0.1, SVG Export Plug-In . SVG Version: 6.00 Build 0)  -->
<svg version="1.1" id="Layer_1" xmlns="http://www.w3.org/2000/svg" xmlns:xlink="http://www.w3.org/1999/xlink" x="0px" y="0px"
	 viewBox="0 0 332 334" style="enable-background:new 0 0 332 334;" xml:space="preserve">
<style type="text/css">
	.st0{fill:#FF945F;}
	.st1{fill:#665036;}
	.st2{fill:#7F6549;}
	.st3{fill:#513F2A;}
	.st4{fill:#474030;}
	.st5{fill:#7F6F4F;}
	.st6{fill:#212121;}
	.st7{fill:#F4F4F4;}
	.st8{opacity:0.25;}
</style>
<g id="german_x5F_shorthaired_x5F_pointer">
	<circle id="bckgrd_17_" class="st0" cx="166" cy="167" r="166"/>
	<path id="head_11_" class="st1" d="M250.17,166.64c0,16.35-10.53,34.37-18.6,50.86c-14.86,30.37-21.67,55.55-65.51,55.55
		c-43.82,0-50.65-25.18-65.51-55.55c-8.07-16.49-18.6-34.51-18.6-50.86c0-46.46,0-102.9,84.12-102.9S250.17,120.19,250.17,166.64z"
		/>
	<path id="snout_12_" class="st2" d="M220.14,231.2c0,15.22,2.64,43.04-13.01,43.04c-10.14,0-27.34-17.21-41.08-17.21
		c-12.89,0-30.19,16.82-39.91,16.82c-16.82,0-14.18-26.58-14.18-42.65c0-16.64,9.41-22.98,21.5-37.31
		c8.95-10.6,15.76-65.2,32.58-65.2c19.17,0,22.58,53.93,31.32,63.74C210.18,206.81,220.14,213.99,220.14,231.2z"/>
	<g id="spots">
		<ellipse class="st3" cx="125.5" cy="236.55" rx="4.98" ry="8.13"/>
		
			<ellipse transform="matrix(0.62 -0.7846 0.7846 0.62 -147.4452 205.1933)" class="st3" cx="138.11" cy="254.81" rx="5.85" ry="3.58"/>
		
			<ellipse transform="matrix(0.1098 -0.994 0.994 0.1098 -83.7032 406.2097)" class="st3" cx="184.92" cy="249.83" rx="5.85" ry="3.58"/>
		
			<ellipse transform="matrix(0.3697 -0.9291 0.9291 0.3697 -83.0471 260.3802)" class="st3" cx="150.4" cy="191.4" rx="5.85" ry="3.58"/>
		
			<ellipse transform="matrix(0.62 -0.7846 0.7846 0.62 -100.5761 245.5254)" class="st3" cx="203.18" cy="226.59" rx="6.68" ry="4.09"/>
		
			<ellipse transform="matrix(0.9771 -0.2127 0.2127 0.9771 -49.4726 49.7529)" class="st3" cx="206.5" cy="254.81" rx="5.54" ry="9.84"/>
	</g>
	<path id="nose_4_" class="st4" d="M189.57,216.94c0,8.72-10.53,19.48-23.51,19.48c-12.99,0-23.51-10.76-23.51-19.48
		c0-8.72,10.53-12.09,23.51-12.09C179.04,204.85,189.57,208.22,189.57,216.94z"/>
	<g id="ears_21_">
		<g>
			<g>
				<path class="st3" d="M129.22,65.22l-17,1.67c-9.87,1.71-22.24,5.32-31.41,12.16l-38.69,28.89
					c-11.23,8.51-22.71,27.71-11.17,43.61l39.98,60.73c2.15,2.77,6.58,1.58,7.05-1.89l2.34-57.7c3.37-24.57,15.26-47.18,33.59-63.87
					l18.36-16.72C135.09,69.52,133.01,64.85,129.22,65.22z"/>
			</g>
			<g>
				<path class="st3" d="M204.85,63.84l16.92,2.36c9.8,2.12,22.01,6.23,30.88,13.45l37.47,30.45c10.87,8.96,21.55,28.62,9.37,44.03
					l-42.53,56.21c-2.26,2.68-6.64,1.31-6.97-2.18l0.13-54.92c-2.35-24.69-13.3-47.77-30.94-65.2l-17.66-17.46
					C198.81,67.9,201.08,63.31,204.85,63.84z"/>
			</g>
		</g>
	</g>
	<g id="eyes_9_">
		<g id="left_x5F_eye_4_">
			<circle class="st5" cx="124.87" cy="136.91" r="13.3"/>
			<circle class="st6" cx="124.87" cy="136.91" r="9.58"/>
			<circle class="st7" cx="126.26" cy="132.61" r="2.23"/>
		</g>
		<g id="right_x5F_eye_9_">
			<circle class="st5" cx="206.46" cy="136.91" r="13.3"/>
			<circle class="st6" cx="206.46" cy="136.91" r="9.58"/>
			<circle class="st7" cx="208.81" cy="132.61" r="2.23"/>
		</g>
	</g>
	<g id="shadow_42_" class="st8">
		<path class="st1" d="M166.05,64.08c-0.34,0-0.68,0-1.02,0.01v209.3c0.34,0,0.68,0.01,1.02,0.01c43.85,0,50.65-25.18,65.51-55.55
			c8.07-16.49,18.6-34.51,18.6-50.86C250.17,120.52,250.17,64.08,166.05,64.08z"/>
		<path class="st2" d="M220.14,231.53c0-17.21-9.96-24.39-22.77-38.77c-8.74-9.81-12.15-63.74-31.32-63.74
			c-0.35,0-0.69,0.03-1.02,0.07v128.29c0.34-0.02,0.68-0.04,1.02-0.04c13.74,0,30.94,17.21,41.08,17.21
			C222.78,274.57,220.14,246.75,220.14,231.53z"/>
		<g id="spots_1_">
			
				<ellipse transform="matrix(0.1098 -0.994 0.994 0.1098 -84.0332 406.5052)" class="st3" cx="184.92" cy="250.17" rx="5.85" ry="3.58"/>
			
				<ellipse transform="matrix(0.62 -0.7846 0.7846 0.62 -100.8366 245.6516)" class="st3" cx="203.18" cy="226.93" rx="6.68" ry="4.09"/>
			
				<ellipse transform="matrix(0.9771 -0.2127 0.2127 0.9771 -49.5432 49.7605)" class="st3" cx="206.5" cy="255.15" rx="5.54" ry="9.84"/>
		</g>
		<path class="st4" d="M166.05,205.18c-0.34,0-0.68,0-1.02,0.01v31.54c0.34,0.01,0.68,0.03,1.02,0.03
			c12.99,0,23.51-10.76,23.51-19.48C189.57,208.55,179.04,205.18,166.05,205.18z"/>
		<g id="ears_17_">
			<g>
				<g>
					<path class="st3" d="M204.85,64.17l16.92,2.36c9.8,2.12,22.01,6.23,30.88,13.45l37.47,30.45c10.87,8.96,21.55,28.62,9.37,44.03
						l-42.53,56.21c-2.26,2.68-6.64,1.31-6.97-2.18l0.13-54.92c-2.35-24.69-13.3-47.77-30.94-65.2l-17.66-17.46
						C198.81,68.23,201.08,63.64,204.85,64.17z"/>
				</g>
			</g>
		</g>
		<g id="eyes_8_">
			<g id="right_x5F_eye_8_">
				<circle class="st5" cx="206.46" cy="137.24" r="13.3"/>
				<circle class="st6" cx="206.46" cy="137.24" r="9.58"/>
				<circle class="st7" cx="208.81" cy="132.94" r="2.23"/>
			</g>
		</g>
	</g>
</g>
</svg>
