<?xml version="1.0" encoding="utf-8"?>
<!-- Generator: Adobe Illustrator 23.0.1, SVG Export Plug-In . SVG Version: 6.00 Build 0)  -->
<svg version="1.1" id="Layer_1" xmlns="http://www.w3.org/2000/svg" xmlns:xlink="http://www.w3.org/1999/xlink" x="0px" y="0px"
	 viewBox="0 0 230.61 232" style="enable-background:new 0 0 230.61 232;" xml:space="preserve">
<style type="text/css">
	.st0{fill:#18535B;}
	.st1{fill:#FFF761;}
	.st2{fill:#FF945F;}
	.st3{opacity:0.25;}
</style>
<circle class="st0" cx="115.64" cy="115.53" r="114.12"/>
<g id="herding_1_">
	<g id="sheep_2_">
		<g id="legs_4_">
			<path class="st1" d="M60.24,137.42l-2.06,43.6h7.05l4.08-37.93C69.31,143.09,68.18,127.92,60.24,137.42z"/>
			<path class="st1" d="M77.72,140.77L83.77,184l6.93-1.31l-3.02-38.03C87.68,144.66,83.76,129.97,77.72,140.77z"/>
			<path class="st1" d="M118.87,140.77l6.05,43.23l6.93-1.31l-3.02-38.03C128.84,144.66,124.91,129.97,118.87,140.77z"/>
			<path class="st1" d="M144.74,138.42l6.05,43.23l6.93-1.31l-3.02-38.03C154.7,142.31,150.78,127.61,144.74,138.42z"/>
		</g>
		<path class="st2" d="M186.34,104.6c0-16.23-13.16-29.39-29.39-29.39c-3.25,0-6.38,0.54-9.3,1.51
			c-4.94-9.29-14.71-15.62-25.97-15.62c-10.17,0-19.13,5.17-24.41,13.01c-2.7-0.81-5.55-1.26-8.51-1.26
			c-12.41,0-23.01,7.69-27.32,18.56c-12.68,3.26-22.06,14.77-22.06,28.47c0,14.98,11.21,27.33,25.69,29.15
			c5.35,7.27,13.97,12,23.69,12c4.54,0,8.84-1.03,12.68-2.87c4.75,3.29,10.5,5.22,16.72,5.22c7.56,0,14.44-2.85,19.65-7.54
			c3.05,1.07,6.33,1.66,9.74,1.66c16.23,0,29.39-13.16,29.39-29.39c0-0.64-0.03-1.28-0.07-1.91
			C182.69,120.83,186.34,113.14,186.34,104.6z"/>
		<path class="st1" d="M190.72,87.61c-5.88-16.58-18.71-27.16-28.67-23.63c-6.6,2.34-10.27,10.31-10.28,20.24
			c-1.46,0.23-3.28,0.9-5.11,1.96c-3.66,2.11-5.96,4.96-5.15,6.37c0.81,1.41,4.43,0.83,8.09-1.28c0.93-0.54,1.77-1.12,2.5-1.72
			c0.43,3.51,1.28,7.17,2.58,10.84c5.88,16.58,18.71,27.16,28.67,23.63C193.3,120.48,196.6,104.18,190.72,87.61z"/>
		<path class="st2" d="M177.52,61.09c-1.39,0-2.7,0.33-3.87,0.91c-2.02-2.01-4.81-3.26-7.88-3.26c-5.17,0-9.51,3.52-10.78,8.29
			c-0.32-0.04-0.65-0.06-0.98-0.06c-4.87,0-8.82,3.95-8.82,8.82c0,4.87,3.95,8.82,8.82,8.82c3.23,0,6.05-1.75,7.59-4.34
			c1.29,0.52,2.69,0.81,4.17,0.81c3.08,0,5.86-1.24,7.88-3.26c1.17,0.57,2.48,0.91,3.87,0.91c4.87,0,8.82-3.95,8.82-8.82
			S182.39,61.09,177.52,61.09z"/>
	</g>
	<g id="shadow_12_" class="st3">
		<g id="legs_3_">
			<path class="st1" d="M118.87,140.77l6.05,43.23l6.93-1.31l-3.02-38.03C128.84,144.66,124.91,129.97,118.87,140.77z"/>
			<path class="st1" d="M144.74,138.42l6.05,43.23l6.93-1.31l-3.02-38.03C154.7,142.31,150.78,127.61,144.74,138.42z"/>
		</g>
		<path class="st2" d="M186.34,104.6c0-16.23-13.16-29.39-29.39-29.39c-3.25,0-6.38,0.54-9.3,1.51
			c-4.94-9.29-14.71-15.62-25.97-15.62c-2.61,0-5.15,0.35-7.56,0.99v101.02c1.32,0.18,2.66,0.29,4.03,0.29
			c7.56,0,14.44-2.85,19.65-7.54c3.05,1.07,6.33,1.66,9.74,1.66c16.23,0,29.39-13.16,29.39-29.39c0-0.64-0.03-1.28-0.07-1.91
			C182.69,120.83,186.34,113.14,186.34,104.6z"/>
		<path class="st1" d="M190.72,87.61c-5.88-16.58-18.71-27.16-28.67-23.63c-6.6,2.34-10.27,10.31-10.28,20.24
			c-1.46,0.23-3.28,0.9-5.11,1.96c-3.66,2.11-5.96,4.96-5.15,6.37c0.81,1.41,4.43,0.83,8.09-1.28c0.93-0.54,1.77-1.12,2.5-1.72
			c0.43,3.51,1.28,7.17,2.58,10.84c5.88,16.58,18.71,27.16,28.67,23.63C193.3,120.48,196.6,104.18,190.72,87.61z"/>
		<path class="st2" d="M177.52,61.09c-1.39,0-2.7,0.33-3.87,0.91c-2.02-2.01-4.81-3.26-7.88-3.26c-5.17,0-9.51,3.52-10.78,8.29
			c-0.32-0.04-0.65-0.06-0.98-0.06c-4.87,0-8.82,3.95-8.82,8.82c0,4.87,3.95,8.82,8.82,8.82c3.23,0,6.05-1.75,7.59-4.34
			c1.29,0.52,2.69,0.81,4.17,0.81c3.08,0,5.86-1.24,7.88-3.26c1.17,0.57,2.48,0.91,3.87,0.91c4.87,0,8.82-3.95,8.82-8.82
			S182.39,61.09,177.52,61.09z"/>
	</g>
</g>
</svg>
