<?xml version="1.0" encoding="utf-8"?>
<!-- Generator: Adobe Illustrator 23.0.1, SVG Export Plug-In . SVG Version: 6.00 Build 0)  -->
<svg version="1.1" id="Layer_1" xmlns="http://www.w3.org/2000/svg" xmlns:xlink="http://www.w3.org/1999/xlink" x="0px" y="0px"
	 viewBox="0 0 230.61 232" style="enable-background:new 0 0 230.61 232;" xml:space="preserve">
<style type="text/css">
	.st0{fill:#18535B;}
	.st1{fill:#FFF761;}
	.st2{fill:#FF945F;}
	.st3{opacity:0.25;}
</style>
<circle class="st0" cx="115.64" cy="115.53" r="114.12"/>
<g id="hound_3_">
	<g id="hound_4_">
		<path class="st1" d="M90.59,73.44c0,0-22.24-9.5-21.12,34.02c0.84,32.59-7.64,48.04-11.95,53.75c-2.66,3.52-4.55,7.59-5.45,11.91
			c-1.65,7.95,16.37,21.68,39.28,2.81c1.55-1.28,3.21-2.4,4.98-3.36c4.99-2.72,0.56-17.05,3.63-34.7"/>
		<path class="st1" d="M143.86,73.44c0,0,22.24-9.5,21.12,34.02c-0.84,32.59,7.64,48.04,11.95,53.75c2.66,3.52,4.55,7.59,5.45,11.91
			c1.65,7.95-16.37,21.68-39.28,2.81c-1.55-1.28-3.21-2.4-4.98-3.36c-4.99-2.72-0.56-17.05-3.63-34.7"/>
		<ellipse class="st2" cx="118.21" cy="98.22" rx="34.12" ry="47.46"/>
		<circle class="st1" cx="99.91" cy="90.77" r="3.41"/>
		<circle class="st1" cx="135.89" cy="90.77" r="3.41"/>
		<path class="st1" d="M125.66,100.39c0,5.14,9.33,22.54,8.69,26.68c-1.29,8.27-12.77-2.48-15.51-2.48
			c-2.68,0-14.2,10.46-15.51,2.48c-0.7-4.25,7.45-21.32,7.45-26.68c0-15.42-4.96-27.92,7.45-27.92
			C127.52,72.47,125.66,84.97,125.66,100.39z"/>
		<path class="st2" d="M120.27,108.15h-4.05c-2.64,0-4.29,2.86-2.97,5.15l2.03,3.51c1.32,2.29,4.62,2.29,5.95,0l2.03-3.51
			C124.56,111.01,122.91,108.15,120.27,108.15z"/>
	</g>
	<g id="shadow_20_" class="st3">
		<path class="st1" d="M144.39,73.44c0,0,22.24-9.5,21.12,34.02c-0.84,32.59,7.64,48.04,11.95,53.75c2.66,3.52,4.55,7.59,5.45,11.91
			c1.65,7.95-16.37,21.68-39.28,2.81c-1.55-1.28-3.21-2.4-4.98-3.36c-4.99-2.72-0.56-17.05-3.63-34.7"/>
		<path class="st2" d="M118.73,50.76c-0.3,0-0.6,0.01-0.9,0.02v94.89c0.3,0.01,0.6,0.02,0.9,0.02c18.85,0,34.12-21.25,34.12-47.46
			C152.86,72.01,137.58,50.76,118.73,50.76z"/>
		<circle class="st1" cx="136.41" cy="90.77" r="3.41"/>
		<path class="st1" d="M126.18,100.39c0-15.42,1.86-27.92-7.45-27.92c-0.31,0-0.61,0.01-0.9,0.03v52.59c0.63-0.31,1.16-0.5,1.52-0.5
			c2.74,0,14.22,10.75,15.51,2.48C135.51,122.93,126.18,105.53,126.18,100.39z"/>
		<path class="st2" d="M123.63,108.15h-5.79v11.75c0.81,0.49,1.95,0.29,2.48-0.63l4.86-8.42
			C125.87,109.64,125.01,108.15,123.63,108.15z"/>
	</g>
</g>
</svg>
