<?xml version="1.0" encoding="utf-8"?>
<!-- Generator: Adobe Illustrator 23.0.1, SVG Export Plug-In . SVG Version: 6.00 Build 0)  -->
<svg version="1.1" id="Layer_1" xmlns="http://www.w3.org/2000/svg" xmlns:xlink="http://www.w3.org/1999/xlink" x="0px" y="0px"
	 viewBox="0 0 332 334" style="enable-background:new 0 0 332 334;" xml:space="preserve">
<style type="text/css">
	.st0{fill:#FF945F;}
	.st1{fill:#CEC79D;}
	.st2{fill:#C9BB7D;}
	.st3{fill:#474030;}
	.st4{fill:#565249;}
	.st5{fill:#212121;}
	.st6{fill:#F4F4F4;}
	.st7{opacity:0.25;fill:#CEC79D;}
	.st8{fill:#BFB175;}
	.st9{fill:#3A3429;}
	.st10{opacity:0.25;}

</style>
<g id="Labrador_x5F_Retriever">
	<circle id="bckgrd_3_" class="st0" cx="166.01" cy="167.44" r="166.09"/>
	<path id="head_3_" class="st1" d="M250.23,167.09c0,16.36-10.54,34.39-18.61,50.89c-14.87,30.39-21.68,55.59-65.55,55.59
		c-43.84,0-50.68-25.2-65.55-55.59c-8.08-16.5-18.61-34.53-18.61-50.89c0-46.48,0-102.95,84.16-102.95S250.23,120.6,250.23,167.09z"
		/>
	<path id="snout_3_" class="st2" d="M218.52,231.68c0,15.22,4.31,43.06-11.35,43.06c-10.14,0-27.36-17.22-41.1-17.22
		c-12.89,0-30.21,16.83-39.93,16.83c-16.83,0-12.53-26.59-12.53-42.67c0-16.65,7.76-31.96,19.86-46.3
		c8.95-10.61,15.77-56.27,32.6-56.27c19.18,0,22.59,44.99,31.33,54.8C210.22,198.31,218.52,214.45,218.52,231.68z"/>
	<path id="nose_2_" class="st3" d="M193.46,216.8c0,10.16-12.27,22.7-27.4,22.7s-27.4-12.54-27.4-22.7
		c0-10.16,12.27-14.09,27.4-14.09S193.46,206.64,193.46,216.8z"/>
	<g id="ears_6_">
		<path class="st2" d="M129.21,65.61l-17.01,1.67c-9.88,1.71-22.26,5.33-31.43,12.17l-38.72,28.9
			c-11.23,8.51-22.72,27.73-11.18,43.63l36.34,46.81c2.15,2.77,6.58,1.58,7.06-1.89l6-43.78c3.37-24.58,15.27-47.2,33.61-63.91
			l18.37-16.73C135.08,69.91,133,65.23,129.21,65.61z"/>
		<path class="st2" d="M205.22,64.22l16.93,2.37c9.8,2.12,22.02,6.24,30.9,13.45l37.49,30.47c10.87,8.97,21.56,28.64,9.37,44.06
			l-38.24,45.28c-2.26,2.68-6.64,1.31-6.97-2.18l-4.19-43.99c-2.35-24.7-13.31-47.79-30.95-65.24l-17.67-17.47
			C199.17,68.28,201.44,63.69,205.22,64.22z"/>
	</g>
	<g id="eyes_4_">
		<g id="left_x5F_eye_2_">
			<circle class="st4" cx="124.85" cy="137.34" r="13.31"/>
			<circle class="st5" cx="124.85" cy="137.34" r="9.58"/>
			<circle class="st6" cx="126.25" cy="133.03" r="2.23"/>
		</g>
		<g id="right_x5F_eye_4_">
			<circle class="st4" cx="206.49" cy="137.34" r="13.31"/>
			<circle class="st5" cx="206.49" cy="137.34" r="9.58"/>
			<circle class="st6" cx="208.85" cy="133.03" r="2.23"/>
		</g>
	</g>
	<g id="shadow_1_">
		<path class="st7" d="M166.06,64.13c-0.17,0-0.34,0-0.51,0v209.43c0.17,0,0.34,0,0.51,0c43.87,0,50.68-25.2,65.55-55.59
			c8.08-16.5,18.61-34.53,18.61-50.89C250.23,120.6,250.23,64.13,166.06,64.13z"/>
		<path class="st8" d="M218.52,231.68c0-17.22-8.28-33.37-21.07-47.76c-8.72-9.81-12.12-54.8-31.26-54.8
			c-0.17,0-0.34,0.01-0.51,0.02v128.39c0.17-0.01,0.34-0.01,0.51-0.01c13.71,0,30.89,17.22,41.01,17.22
			C222.82,274.74,218.52,246.9,218.52,231.68z"/>
		<path class="st9" d="M166.06,202.71c-0.17,0-0.34,0-0.51,0v36.78c0.17,0,0.34,0.01,0.51,0.01c15.13,0,27.4-12.54,27.4-22.7
			C193.46,206.64,181.2,202.71,166.06,202.71z"/>
		<g id="ears_3_">
			<g>
				<g>
					<path class="st8" d="M205.22,64.22l16.93,2.37c9.8,2.12,22.02,6.24,30.9,13.45l37.49,30.47c10.87,8.97,21.56,28.64,9.37,44.06
						l-38.24,45.28c-2.26,2.68-6.64,1.31-6.97-2.18l-4.19-43.99c-2.35-24.7-13.31-47.79-30.95-65.24l-17.67-17.47
						C199.17,68.28,201.44,63.69,205.22,64.22z"/>
				</g>
			</g>
		</g>
		<g id="eyes_3_" class="st10">
			<g id="right_x5F_eye_3_">
				<circle class="st4" cx="206.49" cy="137.34" r="13.31"/>
				<circle class="st5" cx="206.49" cy="137.34" r="9.58"/>
				<circle class="st6" cx="208.85" cy="133.03" r="2.23"/>
			</g>
		</g>
	</g>
</g>
</svg>
