<?xml version="1.0" encoding="utf-8"?>
<!-- Generator: Adobe Illustrator 23.0.1, SVG Export Plug-In . SVG Version: 6.00 Build 0)  -->
<svg version="1.1" id="Layer_1" xmlns="http://www.w3.org/2000/svg" xmlns:xlink="http://www.w3.org/1999/xlink" x="0px" y="0px"
	 viewBox="0 0 230.61 232" style="enable-background:new 0 0 230.61 232;" xml:space="preserve">
<style type="text/css">
	.st0{fill:#18535B;}
	.st1{fill:#FF945F;}
	.st2{opacity:0.25;fill:#FF945F;}
</style>
<g>
	<circle class="st0" cx="114.95" cy="116.23" r="114.12"/>
	<path id="size_3_" class="st1" d="M49.21,68.89c0,0,8.62-1.15,15.24,0.49c6.05,1.5,30.47,12.44,27.88,17.03
		C78.73,110.56,77.9,85.21,78,87.03c1.09,20.07,48.67,12.97,96.94,19.79c0,0,33.68-2.12,25.73-36.01c-0.31-1.34,1.53-2.07,2.19-0.86
		c5.99,10.97,6.8,36.24-20.84,47.77c0,0,0.04,15.75-3.41,24.13c-4.03,9.8-11.59,14.15-13.37,52.71c0,0-15.69,7.93-19.96,1.77
		c-1.42-2.05,6.17-6.7,5.71-12.36c-0.55-6.74-6.79-27.47-6-42.4c0.03-0.63-12.66,4.88-15.35,5.56c-0.51,0.13-1.01,0.3-1.49,0.52
		c-3.26,1.42-14.8,4.87-38.48-3.39l-2.99,45.19c0,0-12.06,13.94-18.21,2.18c-0.71-1.35,5.96-3.68,5.22-5.75l-3.92-46.64
		l-14.25-27.72c0,0-27.46,16.45-35.97-10.9c-0.67-2.15,10.95-5.5,13.01-7.89C32.58,92.74,33.67,71.43,49.21,68.89z"/>
	<path id="shadow_9_" class="st2" d="M202.86,69.95c-0.66-1.21-2.5-0.48-2.19,0.86c7.95,33.89-25.73,36.01-25.73,36.01
		c-21.33-3.01-42.52-3.31-59.63-4.43v47.18c7.02,0.17,11.11-1.16,12.85-1.92c0.48-0.21,0.98-0.39,1.49-0.52
		c2.69-0.67,15.38-6.19,15.35-5.56c-0.79,14.92,5.45,35.65,6,42.4c0.46,5.65-7.13,10.3-5.71,12.36c4.27,6.16,19.96-1.77,19.96-1.77
		c1.78-38.57,9.34-42.92,13.37-52.71c3.45-8.38,3.41-24.13,3.41-24.13C209.66,106.18,208.85,80.91,202.86,69.95z"/>
</g>
</svg>
