<?xml version="1.0" encoding="utf-8"?>
<!-- Generator: Adobe Illustrator 23.0.1, SVG Export Plug-In . SVG Version: 6.00 Build 0)  -->
<svg version="1.1" id="Layer_1" xmlns="http://www.w3.org/2000/svg" xmlns:xlink="http://www.w3.org/1999/xlink" x="0px" y="0px"
	 viewBox="0 0 230.61 232" style="enable-background:new 0 0 230.61 232;" xml:space="preserve">
<style type="text/css">
	.st0{fill:#FFF761;}
	.st1{fill:#18535B;}
	.st2{fill:#FF945F;}
	.st3{opacity:0.25;}
</style>
<circle class="st0" cx="116.26" cy="116.1" r="112.02"/>
<g id="shield_1_">
	<g>
		<path class="st1" d="M176.55,66.94c-33.28-1.06-47.98-15.24-53.94-24.03c-1.75-2.58-5.53-2.6-7.3-0.04
			c-6.06,8.79-20.97,23-54.3,24.06c-2.3,0.07-4.16,1.87-4.29,4.16c-1.28,22.44-3.95,129.41,61.84,129.89l0,0.01
			c0.07,0,0.15-0.01,0.22-0.01c0.07,0,0.15,0.01,0.22,0.01v-0.01c65.79-0.48,63.13-107.44,61.84-129.89
			C180.71,68.81,178.85,67.01,176.55,66.94z"/>
		<path class="st2" d="M165.27,77.6c-31.81-1.7-42.46-17.51-45.35-23.4c-0.43-0.87-0.65-1.82-0.65-2.79l0,0c0,0-0.08,0.24-0.25,0.67
			C119.01,52.03,119,52,119,52l0,0.15c-1.67,4.03-11.54,23.54-46.72,25.45c-3.27,0.18-5.88,2.78-6.03,6.05
			c-1.05,23.19-1.14,106.85,52.03,107.9l0,0.03c0.17,0,0.33-0.01,0.5-0.01c0.17,0,0.33,0.01,0.5,0.01v-0.03
			c53.17-1.05,53.08-84.7,52.03-107.9C171.16,80.38,168.55,77.78,165.27,77.6z"/>
	</g>
	<g class="st3">
		<path class="st1" d="M180.84,71.1c-0.13-2.29-2-4.09-4.29-4.16c-33.28-1.06-47.98-15.24-53.94-24.03
			c-0.9-1.33-2.34-1.98-3.76-1.94V201c0.05,0,0.1,0,0.15,0v-0.01C184.79,200.51,182.13,93.54,180.84,71.1z"/>
		<path class="st2" d="M171.31,83.66c-0.15-3.28-2.76-5.88-6.04-6.05c-31.81-1.7-42.46-17.51-45.35-23.4
			c-0.43-0.87-0.65-1.82-0.65-2.79c0,0-0.08,0.24-0.25,0.67C119.01,52.03,119,52,119,52l0,0.15c-0.04,0.1-0.09,0.22-0.15,0.34
			v139.08c0.14,0,0.28,0.01,0.43,0.01v-0.03C172.45,190.51,172.36,106.86,171.31,83.66z"/>
	</g>
</g>
</svg>
