<?xml version="1.0" encoding="utf-8"?>
<!-- Generator: Adobe Illustrator 23.0.1, SVG Export Plug-In . SVG Version: 6.00 Build 0)  -->
<svg version="1.1" id="Layer_1" xmlns="http://www.w3.org/2000/svg" xmlns:xlink="http://www.w3.org/1999/xlink" x="0px" y="0px"
	 viewBox="0 0 230.61 232" style="enable-background:new 0 0 230.61 232;" xml:space="preserve">
<style type="text/css">
	.st0{fill:#18535B;}
	.st1{fill:#FFF761;}
</style>
<g id="ribbon_x5F_graphic_11_">
	<path class="st0" d="M157.88,113.06c1.43-0.22,2.89-0.31,4.37-0.23h1.09c19.36,0,29.05-23.4,15.36-37.09l0,0
		c-6.69-6.69-6.69-17.53,0-24.22l0,0c10.29-15.9-3.2-36.46-21.88-33.33h0c-7.31,0-14.33-2.91-19.5-8.08l-1.21-1.21
		c-11.62-11.62-30.47-11.62-42.09,0l0,0c-3.33,8.9-12.03,14.61-21.52,14.13h-7.72c-16.91,0-25.38,20.44-13.42,32.4l0.91,0.91
		c7.08,7.08,8.84,17.9,4.36,26.86l0,0c-9.48,18.96,0.11,34.48,21.31,34.48h0c2.01-0.34,4.01-0.37,5.97-0.15L46,210.02l32.38-9.91
		l13.88,34.37l29.08-91.21l24.45,71.38l11.9-31.72l30.4,19.17L157.88,113.06z"/>
	<polygon class="st1" points="54.78,188.6 46,210.02 78.38,200.11 92.26,234.47 106.89,188.6 	"/>
	<polygon class="st1" points="136.87,188.6 145.8,214.65 155.57,188.6 	"/>
	<polygon class="st1" points="166.69,188.6 188.1,202.09 183.52,188.6 	"/>
</g>
</svg>
