<?xml version="1.0" encoding="utf-8"?>
<!-- Generator: Adobe Illustrator 23.0.1, SVG Export Plug-In . SVG Version: 6.00 Build 0)  -->
<svg version="1.1" id="Layer_1" xmlns="http://www.w3.org/2000/svg" xmlns:xlink="http://www.w3.org/1999/xlink" x="0px" y="0px"
	 viewBox="0 0 230.61 232" style="enable-background:new 0 0 230.61 232;" xml:space="preserve">
<style type="text/css">
	.st0{fill:#18535B;}
	.st1{fill:#FF945F;}
	.st2{opacity:0.25;fill:#FF945F;}
</style>
<circle class="st0" cx="115.64" cy="116.23" r="114.12"/>
<g id="size_14_">
	<path id="size_15_" class="st1" d="M73.79,93.15c0,0,5.39-0.72,9.53,0.31c3.78,0.94,19.04,7.78,17.43,10.64
		c-8.5,15.09-9.02-0.76-8.96,0.39c0.68,12.55,30.42,8.11,60.59,12.37c0,0,21.05-1.33,16.08-22.51c-0.2-0.84,0.96-1.29,1.37-0.54
		c3.74,6.85,4.25,22.65-13.03,29.86c0,0,0.02,9.84-2.13,15.08c-2.52,6.12-7.25,8.84-8.36,32.95c0,0-9.81,4.95-12.47,1.11
		c-0.89-1.28,3.86-4.19,3.57-7.72c-0.34-4.21-4.25-17.17-3.75-26.5c0.02-0.4-7.91,3.05-9.59,3.47c-0.32,0.08-0.63,0.19-0.93,0.32
		c-2.04,0.89-9.25,3.04-24.05-2.12l-1.87,28.24c0,0-7.54,8.71-11.38,1.36c-0.44-0.84,3.73-2.3,3.27-3.59l-2.45-29.15l-8.91-17.32
		c0,0-17.16,10.28-22.48-6.81c-0.42-1.34,6.84-3.44,8.13-4.93C63.39,108.06,64.07,94.74,73.79,93.15z"/>
	<path id="shadow_26_" class="st2" d="M169.82,93.81c-0.41-0.75-1.57-0.3-1.37,0.54c4.97,21.18-16.08,22.51-16.08,22.51
		c-13.33-1.88-26.58-2.07-37.27-2.77v29.49c4.39,0.11,6.95-0.73,8.03-1.2c0.3-0.13,0.61-0.24,0.93-0.32
		c1.68-0.42,9.61-3.87,9.59-3.47c-0.49,9.33,3.41,22.28,3.75,26.5c0.29,3.53-4.46,6.44-3.57,7.72c2.67,3.85,12.47-1.11,12.47-1.11
		c1.11-24.1,5.84-26.82,8.36-32.95c2.15-5.24,2.13-15.08,2.13-15.08C174.07,116.46,173.56,100.67,169.82,93.81z"/>
</g>
</svg>
