<?xml version="1.0" encoding="utf-8"?>
<!-- Generator: Adobe Illustrator 23.0.1, SVG Export Plug-In . SVG Version: 6.00 Build 0)  -->
<svg version="1.1" id="Layer_1" xmlns="http://www.w3.org/2000/svg" xmlns:xlink="http://www.w3.org/1999/xlink" x="0px" y="0px"
	 viewBox="0 0 230.61 232" style="enable-background:new 0 0 230.61 232;" xml:space="preserve">
<style type="text/css">
	.st0{fill:#18535B;}
	.st1{fill:#FF945F;}
	.st2{fill:#FF945F;stroke:#FFF761;stroke-width:7.1708;stroke-miterlimit:10;}
	.st3{fill:#FFF761;}
	.st4{opacity:0.25;}
</style>
<circle class="st0" cx="115.64" cy="115.53" r="114.12"/>
<g id="non-sporting_3_">
	<g id="non-sporting_4_">
		<g id="ball_16_">
			<circle class="st1" cx="117.31" cy="114.56" r="56.89"/>
			<path class="st2" d="M103.08,169.4c0,0,10.3-55.91-29.79-90.44"/>
			<path class="st2" d="M158.49,153.29c0,0-38.66-41.68-23.33-92.32"/>
		</g>
		<path class="st3" d="M175.46,169.96l-3.26,3.26c-1.97,1.97-5.17,1.97-7.15,0L60.64,68.8c-1.97-1.97-1.97-5.17,0-7.15l3.26-3.26
			c1.97-1.97,5.17-1.97,7.15,0l104.42,104.42C177.44,164.79,177.44,167.99,175.46,169.96z"/>
		<path class="st3" d="M65.49,171.63l-3.26-3.26c-1.97-1.97-1.97-5.17,0-7.15L163.47,59.99c1.97-1.97,5.17-1.97,7.15,0l3.26,3.26
			c1.97,1.97,1.97,5.17,0,7.15L72.64,171.63C70.66,173.6,67.46,173.6,65.49,171.63z"/>
	</g>
	<g id="shadow_23_" class="st4">
		<g id="ball_15_">
			<path class="st1" d="M171.55,99.06c-7.21-24.82-29.85-40.96-54.45-41.02v113.8c5.19-0.02,10.46-0.75,15.7-2.27
				C162.96,160.8,180.32,129.23,171.55,99.06z"/>
			<path class="st2" d="M158.1,153.67c0,0-38.66-41.68-23.33-92.32"/>
		</g>
		<path class="st3" d="M176.65,164.77l-59.55-59.55v20.81l49.15,49.15c1.1,1.1,2.89,1.1,3.99,0l6.42-6.42
			C177.75,167.66,177.75,165.87,176.65,164.77z"/>
		<path class="st3" d="M175.06,65.2l-6.42-6.42c-1.1-1.1-2.89-1.1-3.99,0l-47.56,47.56v20.81l57.96-57.96
			C176.16,68.09,176.16,66.3,175.06,65.2z"/>
	</g>
</g>
</svg>
