<?xml version="1.0" encoding="utf-8"?>
<!-- Generator: Adobe Illustrator 23.0.1, SVG Export Plug-In . SVG Version: 6.00 Build 0)  -->
<svg version="1.1" id="Layer_1" xmlns="http://www.w3.org/2000/svg" xmlns:xlink="http://www.w3.org/1999/xlink" x="0px" y="0px"
	 viewBox="0 0 230.61 232" style="enable-background:new 0 0 230.61 232;" xml:space="preserve">
<style type="text/css">
	.st0{fill:#FFF761;}
	.st1{fill:#FF945F;}
	.st2{fill:#18535B;}
	.st3{opacity:0.25;}
</style>
<circle class="st0" cx="116.26" cy="116.1" r="112.02"/>
<g id="toy_4_">
	<g id="toy_5_">
		<path class="st1" d="M159.53,123.08c-6.27-2.92-12.5-4.31-17.37-4.17c-1.83-2.58-3.94-4.88-6.27-6.84
			c7.33-5.79,12.03-14.76,12.03-24.82c0-4.5-0.95-8.78-2.64-12.66c5.49-1.6,9.5-6.66,9.5-12.66c0-7.28-5.9-13.18-13.18-13.18
			c-6,0-11.06,4.01-12.66,9.5c-3.88-1.69-8.15-2.64-12.66-2.64c-4.87,0-9.47,1.1-13.59,3.06c-1.45-5.7-6.62-9.92-12.78-9.92
			c-7.28,0-13.18,5.9-13.18,13.18c0,6.34,4.48,11.63,10.44,12.9c-1.63,3.81-2.53,8.01-2.53,12.42c0,10.07,4.71,19.03,12.03,24.82
			c-2.34,1.97-4.46,4.29-6.3,6.89c-4.98-0.34-11.56,1.04-18.21,4.13c-11.94,5.56-19.54,14.54-16.97,20.07
			c2.57,5.53,14.34,5.51,26.28-0.05c0.37-0.17,0.73-0.35,1.09-0.52c-0.02,0.62-0.04,1.25-0.04,1.88c0,21.99,15.11,39.81,33.75,39.81
			s33.75-17.83,33.75-39.81c0-0.49-0.02-0.98-0.03-1.46c0.07,0.03,0.14,0.07,0.21,0.1c11.94,5.56,23.71,5.58,26.28,0.05
			C179.07,137.62,171.47,128.63,159.53,123.08z"/>
		<ellipse class="st2" cx="116.28" cy="145.25" rx="25.31" ry="29"/>
		
			<ellipse transform="matrix(0.8853 -0.4651 0.4651 0.8853 -70.2663 61.035)" class="st1" cx="88.57" cy="172.93" rx="14.06" ry="19.96"/>
		
			<ellipse transform="matrix(0.4651 -0.8853 0.8853 0.4651 -75.8802 219.2316)" class="st1" cx="143.47" cy="172.41" rx="19.96" ry="14.06"/>
	</g>
	<g id="shadow_24_" class="st3">
		<path class="st1" d="M159.53,122.55c-6.27-2.92-12.5-4.31-17.37-4.17c-1.83-2.58-3.94-4.88-6.27-6.84
			c7.33-5.79,12.03-14.76,12.03-24.82c0-4.5-0.95-8.78-2.64-12.66c5.49-1.6,9.5-6.66,9.5-12.66c0-7.28-5.9-13.18-13.18-13.18
			c-6,0-11.06,4.01-12.66,9.5c-3.87-1.69-8.13-2.63-12.62-2.64v128.67c18.62-0.02,33.72-17.84,33.72-39.81
			c0-0.49-0.02-0.98-0.03-1.46c0.07,0.03,0.14,0.07,0.21,0.1c11.94,5.56,23.71,5.58,26.28,0.05
			C179.07,137.09,171.47,128.1,159.53,122.55z"/>
		<path class="st2" d="M116.32,115.72v58c13.96-0.02,25.28-13,25.28-29S130.28,115.74,116.32,115.72z"/>
		
			<ellipse transform="matrix(0.4651 -0.8853 0.8853 0.4651 -75.4134 218.9495)" class="st1" cx="143.47" cy="171.88" rx="19.96" ry="14.06"/>
	</g>
</g>
</svg>
