<?xml version="1.0" encoding="utf-8"?>
<!-- Generator: Adobe Illustrator 23.0.1, SVG Export Plug-In . SVG Version: 6.00 Build 0)  -->
<svg version="1.1" id="Layer_1" xmlns="http://www.w3.org/2000/svg" xmlns:xlink="http://www.w3.org/1999/xlink" x="0px" y="0px"
	 viewBox="0 0 332 334" style="enable-background:new 0 0 332 334;" xml:space="preserve">
<style type="text/css">
	.st0{fill:#FF945F;}
	.st1{fill:#C6C6C6;}
	.st2{fill:#ADADAD;}
	.st3{fill:#3F3F3E;}
	.st4{fill:#565249;}
	.st5{fill:#212121;}
	.st6{fill:#F4F4F4;}
	.st7{fill:#B7B7B7;}
	.st8{fill:#9B9B9B;}
	.st9{fill:#353535;}
	.st10{fill:#4C4842;}
</style>
<g id="Poodle">
	<circle id="bckgrd_13_" class="st0" cx="166" cy="167" r="167"/>
	<g id="ears_18_">
		<path class="st1" d="M118.26,191.45c-3.62,53.19-19.94,95.23-41.1,93.79c-21.16-1.44-61.46-56.11-26.39-104.54
			c32.31-44.62,33.41-87.86,46.76-86.51C154.03,99.91,121.88,138.26,118.26,191.45z"/>
		<path class="st1" d="M213.66,191.45c3.62,53.19,19.94,95.23,41.1,93.79c21.16-1.44,61.46-56.11,26.39-104.54
			c-32.31-44.62-33.41-87.86-46.76-86.51C177.89,99.91,210.04,138.26,213.66,191.45z"/>
	</g>
	<g id="head_17_">
		<path class="st1" d="M225.75,276.72c0,25.14-43.05,31.9-59.77,31.9c-17.96,0-60.39-6.76-60.39-31.9
			c0-25.14,21.39-53.27,60.39-53.27S225.75,251.57,225.75,276.72z"/>
		<path id="head_18_" class="st2" d="M238.81,163.73c0,14.14-17.01,37.73-23.99,52c-12.85,26.27-25.27,59.44-48.82,59.44
			c-27.28,0-33.95-31.45-46.81-57.72c-6.98-14.27-25.9-39.58-25.9-53.72c0-40.18,0-77.51,72.76-77.51S238.81,123.55,238.81,163.73z"
			/>
		<path class="st1" d="M230.46,78.49c0,27.12-46.43,34.4-64.46,34.4c-19.37,0-65.13-7.29-65.13-34.4S123.94,21.04,166,21.04
			S230.46,51.37,230.46,78.49z"/>
	</g>
	<path id="snout_9_" class="st1" d="M201.04,229.96c0,13.16-8.8,19.06-13.21,23.47c-3.94,3.94-11.14,6.43-21.83,6.43
		s-20.71-7.01-22.38-8.68c-3.34-3.34-12.07-6.74-12.07-20.64c0-14.39-0.12-16.32,10.34-28.72c7.74-9.17,0-56,24.17-56
		c22.64,0,15.94,46.37,23.5,54.85C200.64,213.1,201.04,215.07,201.04,229.96z"/>
	<path id="nose_8_" class="st3" d="M178.66,232.25c0,4.67-5.64,10.43-12.59,10.43c-6.96,0-12.59-5.76-12.59-10.43
		s5.64-6.48,12.59-6.48C173.03,225.78,178.66,227.58,178.66,232.25z"/>
	<g id="eyes_13_">
		<g id="left_x5F_eye_6_">
			<circle class="st4" cx="130.43" cy="153.23" r="11.51"/>
			<circle class="st5" cx="130.43" cy="153.23" r="8.28"/>
			<circle class="st6" cx="131.64" cy="149.51" r="1.93"/>
		</g>
		<g id="right_x5F_eye_13_">
			<circle class="st4" cx="201" cy="153.23" r="11.51"/>
			<circle class="st5" cx="201" cy="153.23" r="8.28"/>
			<circle class="st6" cx="203.04" cy="149.51" r="1.93"/>
		</g>
	</g>
	<g id="shadow_34_">
		<g id="ears_13_">
			<path class="st7" d="M214.33,191.45c3.62,53.19,19.94,95.23,41.1,93.79c21.16-1.44,61.46-56.11,26.39-104.54
				c-32.31-44.62-33.41-87.86-46.76-86.51C178.56,99.91,210.71,138.26,214.33,191.45z"/>
		</g>
		<g id="head_15_">
			<path class="st7" d="M166.64,223.45c-0.5,0-1,0.01-1.49,0.02v85.14c0.51,0.01,1.01,0.02,1.49,0.02c16.72,0,59.77-6.76,59.77-31.9
				C226.42,251.57,205.64,223.45,166.64,223.45z"/>
			<path class="st8" d="M166.72,86.22c-0.53,0-1.05,0-1.57,0.01v188.91c0.5,0.02,1.01,0.04,1.52,0.04
				c23.55,0,35.96-33.17,48.82-59.44c6.98-14.26,23.99-37.86,23.99-52C239.48,123.55,239.48,86.22,166.72,86.22z"/>
			<path class="st7" d="M166.67,21.04c-0.51,0-1.01,0.01-1.51,0.02v91.82c0.52,0.01,1.03,0.02,1.51,0.02
				c18.04,0,64.46-7.29,64.46-34.4S208.73,21.04,166.67,21.04z"/>
		</g>
		<path class="st7" d="M190.22,200.66c-7.56-8.48-0.86-54.85-23.5-54.85c-0.54,0-1.06,0.03-1.57,0.08V259.8
			c0.5,0.03,1.01,0.05,1.51,0.05c10.69,0,17.89-2.49,21.83-6.43c4.41-4.41,13.21-10.3,13.21-23.47
			C201.71,215.07,201.31,213.1,190.22,200.66z"/>
		<path class="st9" d="M166.52,225.78c-0.62,0-1.24,0.02-1.84,0.05v16.72c0.6,0.09,1.21,0.14,1.84,0.14
			c6.71,0,12.15-5.76,12.15-10.43C178.66,227.58,173.23,225.78,166.52,225.78z"/>
		<g id="eyes_12_">
			<g id="right_x5F_eye_12_">
				<circle class="st10" cx="201.67" cy="153.23" r="11.51"/>
				<circle class="st5" cx="201.67" cy="153.23" r="8.28"/>
				<circle class="st6" cx="203.71" cy="149.51" r="1.93"/>
			</g>
		</g>
	</g>
</g>
</svg>
