<?xml version="1.0" encoding="utf-8"?>
<!-- Generator: Adobe Illustrator 23.0.1, SVG Export Plug-In . SVG Version: 6.00 Build 0)  -->
<svg version="1.1" id="Layer_1" xmlns="http://www.w3.org/2000/svg" xmlns:xlink="http://www.w3.org/1999/xlink" x="0px" y="0px"
	 viewBox="0 0 332 334" style="enable-background:new 0 0 332 334;" xml:space="preserve">
<style type="text/css">
	.st0{fill:#FF945F;}
	.st1{fill:#3A3A3A;}
	.st2{fill:#AD6B1A;}
	.st3{fill:#111111;}
	.st4{fill:#604A28;}
	.st5{fill:#212121;}
	.st6{fill:#F4F4F4;}
	.st7{fill:#2B2B2B;}
	.st8{opacity:0.25;}
</style>
<g id="Rottweiler">
	<circle id="bckgrd_2_" class="st0" cx="166" cy="167" r="166"/>
	<g id="head_16_">
		<path id="head_21_" class="st1" d="M267.26,184.21c0,19.83-9.55,38.37-19.92,58.37c-19.1,36.83-36.74,53.9-80.62,53.9
			c-44.88,0-59.31-17.07-78.41-53.9c-10.37-20-20.58-44.32-20.58-64.15c0-56.34-9.12-122.32,98.99-122.32
			S267.26,127.87,267.26,184.21z"/>
		<ellipse class="st2" cx="125.33" cy="128.16" rx="13.61" ry="6.81"/>
		<ellipse class="st2" cx="210.32" cy="128.16" rx="13.61" ry="6.81"/>
	</g>
	<path id="snout_1_" class="st2" d="M234.39,250c17.6,4.98-5.17,48.81-22.32,48.81c-11.11,0-29.96-26.9-45.02-26.9
		c-14.12,0-33.09,26.47-43.73,26.47c-18.44,0-38.99-45.73-21.06-51.37c17.39-5.48,15.84-29.37,29.09-45.08
		c9.8-11.62,17.27-32.28,35.71-32.28c21.01,0,24.74,19.93,34.32,30.68C215.41,216.09,216.24,244.86,234.39,250z"/>
	<path id="nose_1_" class="st3" d="M191.56,221.36c0,9.21-11.12,20.59-24.85,20.59c-13.72,0-24.85-11.37-24.85-20.59
		s11.12-12.78,24.85-12.78C180.44,208.58,191.56,212.15,191.56,221.36z"/>
	<g id="eyes_2_">
		<g id="left_x5F_eye_1_">
			<circle class="st4" cx="118.76" cy="161.93" r="14.52"/>
			<circle class="st5" cx="118.76" cy="161.93" r="10.45"/>
			<circle class="st6" cx="120.29" cy="157.23" r="2.44"/>
		</g>
		<g id="right_x5F_eye_2_">
			<circle class="st4" cx="214.72" cy="161.93" r="14.52"/>
			<circle class="st5" cx="214.72" cy="161.93" r="10.45"/>
			<circle class="st6" cx="217.29" cy="157.23" r="2.44"/>
		</g>
	</g>
	<g id="ears_2_">
		<g>
			<g>
				<path class="st7" d="M131.37,56.87l-15.56-0.64c-9.13,0.28-20.73,1.89-29.82,6.7L47.62,83.25c-11.15,6-23.78,21.25-15.22,36.45
					l21.03,45.01c1.62,2.67,5.76,2.18,6.6-0.78l16.87-37.2c5.93-20.89,19.33-39.04,37.87-51.27l18.56-12.25
					C136.17,61.33,134.84,57.02,131.37,56.87z"/>
			</g>
			<g>
				<path class="st7" d="M200.26,57.22l15.55-0.77c9.12,0.2,20.73,1.72,29.84,6.46l38.45,20c11.17,5.91,23.88,21.06,15.4,36.34
					l-18.13,45.27c-1.6,2.68-5.74,2.23-6.6-0.72l-19.71-37.13c-6.03-20.85-19.52-38.9-38.11-50.98l-18.62-12.1
					C195.49,61.71,196.79,57.39,200.26,57.22z"/>
			</g>
		</g>
	</g>
	<g id="shadow_8_" class="st8">
		<g id="head_1_">
			<path class="st1" d="M166.72,56.44c-0.51,0-1.01,0-1.52,0.01V296.8c0.5,0,1.01,0.01,1.52,0.01c43.88,0,61.52-17.07,80.62-53.9
				c10.37-20,19.92-38.54,19.92-58.37C267.26,128.2,274.84,56.44,166.72,56.44z"/>
			<ellipse class="st2" cx="210.32" cy="128.49" rx="13.61" ry="6.81"/>
		</g>
		<path class="st2" d="M234.39,250.33c-18.15-5.14-18.98-33.91-33.02-49.67c-9.58-10.75-13.31-30.68-34.32-30.68
			c-0.63,0-1.24,0.03-1.85,0.07v102.33c0.62-0.09,1.24-0.15,1.85-0.15c15.06,0,33.91,26.9,45.02,26.9
			C229.22,299.14,251.99,255.31,234.39,250.33z"/>
		<path class="st3" d="M166.72,208.92c-0.51,0-1.01,0.01-1.52,0.02v33.3c0.5,0.03,1.01,0.05,1.52,0.05
			c13.72,0,24.85-11.37,24.85-20.59C191.56,212.48,180.44,208.92,166.72,208.92z"/>
		<g id="eyes_1_">
			<g id="right_x5F_eye_1_">
				<circle class="st4" cx="214.72" cy="162.26" r="14.52"/>
				<circle class="st5" cx="214.72" cy="162.26" r="10.45"/>
				<circle class="st6" cx="217.29" cy="157.56" r="2.44"/>
			</g>
		</g>
		<g id="ears_1_">
			<g>
				<g>
					<path class="st7" d="M200.26,57.55l15.55-0.77c9.12,0.2,20.73,1.72,29.84,6.46l38.45,20c11.17,5.91,23.88,21.06,15.4,36.34
						l-18.13,45.27c-1.6,2.68-5.74,2.23-6.6-0.72l-19.71-37.13c-6.03-20.85-19.52-38.9-38.11-50.98l-18.62-12.1
						C195.49,62.04,196.79,57.72,200.26,57.55z"/>
				</g>
			</g>
		</g>
	</g>
</g>
</svg>
