<?xml version="1.0" encoding="utf-8"?>
<!-- Generator: Adobe Illustrator 23.0.1, SVG Export Plug-In . SVG Version: 6.00 Build 0)  -->
<svg version="1.1" id="Layer_1" xmlns="http://www.w3.org/2000/svg" xmlns:xlink="http://www.w3.org/1999/xlink" x="0px" y="0px"
	 viewBox="0 0 230.61 232" style="enable-background:new 0 0 230.61 232;" xml:space="preserve">
<style type="text/css">
	.st0{fill:#18535B;}
	.st1{fill:#FF945F;}
	.st2{opacity:0.25;fill:#FF945F;}
</style>
<circle class="st0" cx="115.64" cy="116.23" r="114.12"/>
<g id="size_8_">
	<path id="size_9_" class="st1" d="M81.75,101.24c0,0,4.31-0.58,7.62,0.24c3.03,0.75,15.23,6.22,13.94,8.52
		c-6.8,12.07-7.22-0.6-7.17,0.31c0.54,10.04,24.34,6.49,48.47,9.89c0,0,16.84-1.06,12.87-18.01c-0.16-0.67,0.77-1.04,1.1-0.43
		c2.99,5.48,3.4,18.12-10.42,23.88c0,0,0.02,7.87-1.7,12.07c-2.01,4.9-5.8,7.07-6.69,26.36c0,0-7.85,3.96-9.98,0.89
		c-0.71-1.03,3.09-3.35,2.86-6.18c-0.27-3.37-3.4-13.74-3-21.2c0.02-0.32-6.33,2.44-7.67,2.78c-0.26,0.06-0.5,0.15-0.75,0.26
		c-1.63,0.71-7.4,2.43-19.24-1.69l-1.49,22.59c0,0-6.03,6.97-9.1,1.09c-0.35-0.67,2.98-1.84,2.61-2.87l-1.96-23.32l-7.12-13.86
		c0,0-13.73,8.23-17.98-5.45c-0.33-1.07,5.48-2.75,6.51-3.94C73.43,113.16,73.98,102.51,81.75,101.24z"/>
	<path id="shadow_19_" class="st2" d="M158.58,101.77c-0.33-0.6-1.25-0.24-1.1,0.43c3.97,16.95-12.87,18.01-12.87,18.01
		c-10.66-1.51-21.26-1.65-29.82-2.21v23.59c3.51,0.08,5.56-0.58,6.43-0.96c0.24-0.11,0.49-0.19,0.75-0.26
		c1.34-0.34,7.69-3.09,7.67-2.78c-0.4,7.46,2.73,17.83,3,21.2c0.23,2.83-3.57,5.15-2.86,6.18c2.13,3.08,9.98-0.89,9.98-0.89
		c0.89-19.28,4.67-21.46,6.69-26.36c1.72-4.19,1.7-12.07,1.7-12.07C161.97,119.88,161.57,107.25,158.58,101.77z"/>
</g>
</svg>
