<?xml version="1.0" encoding="utf-8"?>
<!-- Generator: Adobe Illustrator 23.0.1, SVG Export Plug-In . SVG Version: 6.00 Build 0)  -->
<svg version="1.1" id="Layer_1" xmlns="http://www.w3.org/2000/svg" xmlns:xlink="http://www.w3.org/1999/xlink" x="0px" y="0px"
	 viewBox="0 0 230.61 232" style="enable-background:new 0 0 230.61 232;" xml:space="preserve">
<style type="text/css">
	.st0{fill:#FFF761;}
	.st1{fill:#FF945F;}
	.st2{fill:none;stroke:#18535B;stroke-width:3.4088;stroke-miterlimit:10;}
	.st3{opacity:0.25;}
</style>
<circle class="st0" cx="116.2" cy="116.1" r="112.02"/>
<g id="brain_2_">
	<g id="brain">
		<g>
			<path class="st1" d="M114.11,71.56v110.45c0,0-23.86,12.95-25.23-4.77c0,0-14.32,4.77-12.27-9.54c0,0-15-1.36-6.14-18.41
				c0,0-19.77-9.54-9.54-36.13c0,0-9.54-17.73,6.14-23.18c0,0-2.73-19.09,10.23-14.32c0,0-4.77-14.32,12.27-14.32
				C89.57,61.33,114.11,37.47,114.11,71.56z"/>
			<path class="st1" d="M118.89,71.56v110.45c0,0,23.86,12.95,25.23-4.77c0,0,14.32,4.77,12.27-9.54c0,0,15-1.36,6.14-18.41
				c0,0,19.77-9.54,9.54-36.13c0,0,9.54-17.73-6.14-23.18c0,0,2.73-19.09-10.23-14.32c0,0,4.77-14.32-12.27-14.32
				C143.43,61.33,118.89,37.47,118.89,71.56z"/>
		</g>
		<g>
			<path class="st2" d="M110.32,144.61c0,0-15.38-0.08-21.04,18.2"/>
			<path class="st2" d="M99.58,125.18c0,0-12.51,8.94-6.39,27.07"/>
			<path class="st2" d="M86.03,84.22c0,0,10.01,11.68,27.53,3.99"/>
			<path class="st2" d="M89.79,110.89c0,0-12.43-9.06-27.71,2.46"/>
			<path class="st2" d="M122.59,96.97c0,0,15.38,0.08,21.04-18.2"/>
			<path class="st2" d="M133.33,116.4c0,0,12.51-8.94,6.39-27.07"/>
			<path class="st2" d="M146.88,157.36c0,0-10.01-11.68-27.53-3.99"/>
			<path class="st2" d="M143.12,130.69c0,0,12.43,9.06,27.71-2.46"/>
		</g>
	</g>
	<g id="brain_1_" class="st3">
		<g>
			<path class="st1" d="M118.89,71.56v110.45c0,0,23.86,12.95,25.23-4.77c0,0,14.32,4.77,12.27-9.54c0,0,15-1.36,6.14-18.41
				c0,0,19.77-9.54,9.54-36.13c0,0,9.54-17.73-6.14-23.18c0,0,2.73-19.09-10.23-14.32c0,0,4.77-14.32-12.27-14.32
				C143.43,61.33,118.89,37.47,118.89,71.56z"/>
		</g>
		<g>
			<path class="st2" d="M126.03,96.5c8.89-2.04,14.98-9.24,17.61-17.73"/>
			<path class="st2" d="M133.33,116.4c0,0,12.51-8.94,6.39-27.07"/>
			<path class="st2" d="M146.88,157.36c-5.12-5.66-13.56-7.55-20.83-6.13"/>
			<path class="st2" d="M143.12,130.69c0,0,12.43,9.06,27.71-2.46"/>
		</g>
	</g>
</g>
</svg>
