<?xml version="1.0" encoding="utf-8"?>
<!-- Generator: Adobe Illustrator 23.0.1, SVG Export Plug-In . SVG Version: 6.00 Build 0)  -->
<svg version="1.1" id="Layer_1" xmlns="http://www.w3.org/2000/svg" xmlns:xlink="http://www.w3.org/1999/xlink" x="0px" y="0px"
	 viewBox="0 0 230.61 232" style="enable-background:new 0 0 230.61 232;" xml:space="preserve">
<style type="text/css">
	.st0{fill:#18535B;}
	.st1{fill:#FFF761;}
</style>
<g id="brush_x5F_graphic">
	<path class="st0" d="M33.14,203L99.62,11.02c2.46-7.47,11.04-11.36,19.16-8.68l67.35,22.22c0.46,0.15,0.88,0.4,1.23,0.72
		c2.69,2.45,13.25,13.18-4.98,15.11c-0.48,0.05-0.98,0-1.44-0.15l-47.14-15.55c-0.3-0.1-0.62-0.16-0.93-0.17
		c-2.36-0.1-11.76,0.06-3.44,9.43c0.39,0.44,0.9,0.77,1.47,0.96l47.16,15.56c0.45,0.15,0.86,0.39,1.21,0.7
		c2.29,2.06,10.09,9.96-3.75,11.39c-0.48,0.05-0.97,0-1.43-0.15l-46.92-15.48c-0.74-0.24-1.53-0.23-2.23,0.04
		c-2.58,0.97-8.09,3.86-2.89,9.45c0.38,0.4,0.86,0.7,1.4,0.88l46.93,15.48c0.65,0.21,1.22,0.61,1.62,1.14
		c1.82,2.39,6.01,9.19-3.76,10.97c-0.55,0.1-1.12,0.05-1.66-0.12L120.31,69.5c-0.83-0.27-1.73-0.22-2.49,0.15
		c-2.24,1.1-6.29,3.93-2.88,8.96c0.41,0.6,1.02,1.05,1.73,1.29l46.43,15.32c0.56,0.18,1.06,0.51,1.45,0.94
		c1.85,2.07,6.45,8.4-3.62,11.04c-0.61,0.16-1.27,0.13-1.89-0.07l-42.87-14.14c-2.61-0.86-5.59-0.8-7.35,0.82
		c-4.03,3.71,2.15,7.87,4.68,8.65l42.17,13.91c2.8,0.86,5.55,2.25,5.29,7.13c0,0-3.19,5.57-7.52,3.73l-43.5-13.94
		c-11.37,0.39-6.24,6.64-2.83,8.59l43.95,15.33c2.19,1.55,9.14,10.46-4.1,11.07l-42.57-14.04c-10.66-3.1-11.54,4.06-11.54,4.06
		s-22.81,77.88-23.3,78.41C31.88,257.23,33.03,203.33,33.14,203z"/>
	<path class="st1" d="M33.14,203L99.62,11.02c2.46-7.47,11.04-11.36,19.16-8.68l67.35,22.22c0.46,0.15,0.88,0.4,1.23,0.72
		c2.69,2.45,13.25,13.18-4.98,15.11c-0.48,0.05-0.98,0-1.44-0.15l-47.14-15.55c-0.3-0.1-0.62-0.16-0.93-0.17
		c-2.36-0.1-11.76,0.06-3.44,9.43c0.39,0.44,0.9,0.77,1.47,0.96l47.16,15.56c0.45,0.15,0.86,0.39,1.21,0.7
		c2.29,2.06,10.09,9.96-3.75,11.39c-0.48,0.05-0.97,0-1.43-0.15l-46.92-15.48c-0.74-0.24-1.53-0.23-2.23,0.04
		c-2.58,0.97-8.09,3.86-2.89,9.45c0.38,0.4,0.86,0.7,1.4,0.88l46.93,15.48c0.65,0.21,1.22,0.61,1.62,1.14
		c1.82,2.39,6.01,9.19-3.76,10.97c-0.55,0.1-1.12,0.05-1.66-0.12L120.31,69.5c-0.83-0.27-1.73-0.22-2.49,0.15
		c-2.24,1.1-6.29,3.93-2.88,8.96c0.41,0.6,1.02,1.05,1.73,1.29l46.43,15.32c0.56,0.18,1.06,0.51,1.45,0.94
		c1.85,2.07,6.45,8.4-3.62,11.04c-0.61,0.16-1.27,0.13-1.89-0.07l-42.87-14.14c-2.61-0.86-5.59-0.8-7.35,0.82
		c-4.03,3.71,2.15,7.87,4.68,8.65l42.17,13.91c2.8,0.86,5.55,2.25,5.29,7.13c0,0-3.19,5.57-7.52,3.73l-43.5-13.94
		c-11.37,0.39-6.24,6.64-2.83,8.59l43.95,15.33c2.19,1.55,9.14,10.46-4.1,11.07l-42.57-14.04c-10.66-3.1-11.54,4.06-11.54,4.06
		s-22.81,77.88-23.3,78.41C31.88,257.23,33.03,203.33,33.14,203z"/>
</g>
</svg>
