<?xml version="1.0" encoding="utf-8"?>
<!-- Generator: Adobe Illustrator 23.0.1, SVG Export Plug-In . SVG Version: 6.00 Build 0)  -->
<svg version="1.1" id="Layer_1" xmlns="http://www.w3.org/2000/svg" xmlns:xlink="http://www.w3.org/1999/xlink" x="0px" y="0px"
	 viewBox="0 0 230.61 232" style="enable-background:new 0 0 230.61 232;" xml:space="preserve">
<style type="text/css">
	.st0{fill:#18535B;}
	.st1{fill:#FF945F;}
	.st2{opacity:0.25;fill:#FF945F;}
</style>
<circle class="st0" cx="115.64" cy="115.53" r="114.12"/>
<g id="working_1_">
	<path class="st1" d="M159.01,88.65c-1.92,0-3.47-1.55-3.47-3.47V62.42v-8.95c0-1.92-1.55-3.47-3.47-3.47h-9.64H87.89h-9.64
		c-1.92,0-3.47,1.55-3.47,3.47v8.95v22.76c0,1.92-1.55,3.47-3.47,3.47H55.47c-1.92,0-3.47,1.55-3.47,3.47v82.09
		c0,1.92,1.55,3.47,3.47,3.47h120.05c1.92,0,3.47-1.55,3.47-3.47V92.13c0-1.92-1.55-3.47-3.47-3.47H159.01z M91.36,62.42h47.58
		c1.92,0,3.47,1.55,3.47,3.47v19.28c0,1.92-1.55,3.47-3.47,3.47H91.36c-1.92,0-3.47-1.55-3.47-3.47V65.9
		C87.89,63.98,89.45,62.42,91.36,62.42z"/>
	<path id="shadow_36_" class="st2" d="M174.84,88.65h-16.52c-1.92,0-3.47-1.55-3.47-3.47V53.47c0-1.92-1.55-3.47-3.47-3.47H112.9
		v12.42h25.35c1.92,0,3.47,1.55,3.47,3.47v19.28c0,1.92-1.55,3.47-3.47,3.47H112.9v89.04h61.94c1.92,0,3.47-1.55,3.47-3.47V92.13
		C178.31,90.21,176.75,88.65,174.84,88.65z"/>
</g>
</svg>
