<?xml version="1.0" encoding="utf-8"?>
<!-- Generator: Adobe Illustrator 23.0.1, SVG Export Plug-In . SVG Version: 6.00 Build 0)  -->
<svg version="1.1" id="Layer_1" xmlns="http://www.w3.org/2000/svg" xmlns:xlink="http://www.w3.org/1999/xlink" x="0px" y="0px"
	 viewBox="0 0 332 334" style="enable-background:new 0 0 332 334;" xml:space="preserve">
<style type="text/css">
	.st0{fill:#FF945F;}
	.st1{fill:#96734A;}
	.st2{fill:#7F6041;}
	.st3{fill:#1E1E1E;}
	.st4{fill:#564931;}
	.st5{fill:#212121;}
	.st6{fill:#F4F4F4;}
	.st7{opacity:0.25;}
</style>
<g id="yorkshire_x5F_terrier">
	<circle id="bckgrd_19_" class="st0" cx="166" cy="167" r="166"/>
	<g id="head_24_">
		<path id="head_27_" class="st1" d="M166.01,100.6L166.01,100.6c-0.02,0-0.03,0-0.05,0c-0.02,0-0.03,0-0.05,0v0
			c-77,0.04-77,45.43-77,82.79c0,13.15-7.4,27.4,0,40.67c0,0,18.62,19.44,29.88,29.33l2.74-10.42c0,0,1.83,22.97,13.69,28.32
			l1.83-4.54c0,0,7.61,10.69,28.91,21.9c21.3-11.22,28.91-21.9,28.91-21.9l2.43,4.27c11.87-5.34,13.09-28.05,13.09-28.05l3.96,9.88
			c11.26-9.88,28.67-27.77,28.67-27.77c7.4-13.27,0-28.54,0-41.69C243.01,146.03,243.01,100.64,166.01,100.6z"/>
		<path class="st2" d="M114.21,143.43c1.43-4.26,15.19-8.73,24.66-5.55s16,9.21,14.57,13.46s-10.27,5.14-19.74,1.96
			C124.23,150.12,112.78,147.69,114.21,143.43z"/>
		<path class="st2" d="M214.94,143.43c-1.43-4.26-15.19-8.73-24.66-5.55s-16,9.21-14.57,13.46s10.27,5.14,19.74,1.96
			C204.92,150.12,216.36,147.69,214.94,143.43z"/>
	</g>
	<path id="snout_7_" class="st2" d="M215.14,240.37c0,9.44-15.17,6.72-24.88,6.72c-6.29,0-16.97-12.33-25.49-12.33
		c-8,0-18.73,12.08-24.76,12.08c-10.44,0-24.47,0.18-24.47-9.79c0-10.33,21.51-31.75,29.01-40.64c5.55-6.58,9.78-12.37,20.22-12.37
		c11.9,0,14.01,5.38,19.43,11.46C192.14,204.43,215.14,229.69,215.14,240.37z"/>
	<path id="nose_6_" class="st3" d="M176.62,208.18c0,4.13-4.99,9.23-11.14,9.23c-6.15,0-11.14-5.1-11.14-9.23
		c0-4.13,4.99-5.73,11.14-5.73C171.64,202.45,176.62,204.05,176.62,208.18z"/>
	<g id="eyes_11_">
		<g id="left_x5F_eye_5_">
			<circle class="st4" cx="137.86" cy="170.89" r="12.22"/>
			<circle class="st5" cx="137.86" cy="170.89" r="8.8"/>
			<circle class="st6" cx="139.14" cy="166.94" r="2.05"/>
		</g>
		<g id="right_x5F_eye_11_">
			<circle class="st4" cx="193.62" cy="170.89" r="12.22"/>
			<circle class="st5" cx="193.62" cy="170.89" r="8.8"/>
			<circle class="st6" cx="195.79" cy="166.94" r="2.05"/>
		</g>
	</g>
	<g id="ears_19_">
		<g id="left_x5F_ear">
			<path class="st1" d="M78.68,92.3c3.32,4.65-2.99,36.85-0.67,32.61c4.04-7.41,11.05,14.37,13.32,22.5
				c0.07,0.33,0.18,0.53,0.34,0.56c0.66,0.14,1.84-2.89,3.04-4.17l34.58-36.89c1.55-1.66-0.47-4.48-1.85-6.28l-15.81-27.78
				c-1.09-1.42-16.72-25.32-24.35-17.89c-3.62,3.53-22.06,25.16-23.54,29.37C62.44,88.07,72.38,77.03,78.68,92.3z"/>
			<path class="st2" d="M84.24,101.59c1.55,5.55-1.88,12.56-0.33,18.11c1.75,6.24,8.48,11.03,10.23,17.27
				c0.05,0.25,0.14,0.41,0.26,0.43c0.26,0.06,3.13-4.8,6.03-9.74c3.89-6.62,9.35-12.18,15.91-16.17l4.08-2.49
				c1.19-1.27,2.49-6.56,1.43-7.94l-12.13-21.32c-0.83-1.09-12.84-19.44-18.69-13.73c-2.78,2.71-6.28,8.9-7.41,12.13
				C82.61,81.01,83.42,98.74,84.24,101.59z"/>
		</g>
		<g id="right_x5F_ear">
			<path class="st1" d="M253.57,92.3c-3.32,4.65,2.99,36.85,0.67,32.61c-4.04-7.41-11.05,14.37-13.32,22.5
				c-0.07,0.33-0.18,0.53-0.34,0.56c-0.66,0.14-1.84-2.89-3.04-4.17l-34.58-36.89c-1.55-1.66,0.47-4.48,1.85-6.28l15.81-27.78
				c1.09-1.42,16.72-25.32,24.35-17.89c3.62,3.53,22.06,25.16,23.54,29.37C269.82,88.07,259.88,77.03,253.57,92.3z"/>
			<path class="st2" d="M248.02,101.59c-1.55,5.55,1.88,12.56,0.33,18.11c-1.75,6.24-8.48,11.03-10.23,17.27
				c-0.05,0.25-0.14,0.41-0.26,0.43c-0.26,0.06-3.13-4.8-6.03-9.74c-3.89-6.62-9.35-12.18-15.91-16.17l-4.08-2.49
				c-1.19-1.27-2.49-6.56-1.43-7.94l12.13-21.32c0.83-1.09,12.84-19.44,18.69-13.73c2.78,2.71,6.28,8.9,7.41,12.13
				C249.64,81.01,248.84,98.74,248.02,101.59z"/>
		</g>
	</g>
	<g id="shadow_46_" class="st7">
		<g id="head_22_">
			<path class="st1" d="M243.34,183.72c0-37.36,0-82.75-77-82.79v0c-0.02,0-0.03,0-0.05,0c-0.02,0-0.03,0-0.05,0v0
				c-0.75,0-1.49,0.01-2.23,0.02v186.81c0.74,0.41,1.5,0.82,2.28,1.23c21.3-11.22,28.91-21.9,28.91-21.9l2.43,4.27
				c11.87-5.34,13.09-28.05,13.09-28.05l3.96,9.88c11.26-9.88,28.67-27.77,28.67-27.77C250.74,212.15,243.34,196.88,243.34,183.72z"
				/>
			<path class="st2" d="M215.27,143.76c-1.43-4.26-15.19-8.73-24.66-5.55s-16,9.21-14.57,13.46s10.27,5.14,19.74,1.96
				C205.25,150.45,216.7,148.02,215.27,143.76z"/>
		</g>
		<path class="st2" d="M184.53,195.84c-5.42-6.09-7.54-11.46-19.43-11.46c-0.37,0-0.73,0.01-1.08,0.02v50.77
			c0.36-0.05,0.73-0.08,1.08-0.08c8.52,0,19.2,12.33,25.49,12.33c9.71,0,24.88,2.73,24.88-6.72
			C215.47,230.02,192.48,204.76,184.53,195.84z"/>
		<path class="st3" d="M165.82,202.79c-0.61,0-1.22,0.02-1.8,0.05v14.76c0.59,0.1,1.19,0.15,1.8,0.15c6.15,0,11.14-5.1,11.14-9.23
			C176.96,204.38,171.97,202.79,165.82,202.79z"/>
		<g id="eyes_10_">
			<g id="right_x5F_eye_10_">
				<circle class="st4" cx="193.96" cy="171.22" r="12.22"/>
				<circle class="st5" cx="193.96" cy="171.22" r="8.8"/>
				<circle class="st6" cx="196.12" cy="167.27" r="2.05"/>
			</g>
		</g>
		<g id="ears_11_">
			<g id="right_x5F_ear_3_">
				<path class="st1" d="M253.9,92.63c-3.32,4.65,2.99,36.85,0.67,32.61c-4.04-7.41-11.05,14.37-13.32,22.5
					c-0.07,0.33-0.18,0.53-0.34,0.56c-0.66,0.14-1.84-2.89-3.04-4.17l-34.58-36.89c-1.55-1.66,0.47-4.48,1.85-6.28l15.81-27.78
					c1.09-1.42,16.72-25.32,24.35-17.89c3.62,3.53,22.06,25.16,23.54,29.37C270.15,88.4,260.21,77.36,253.9,92.63z"/>
				<path class="st2" d="M248.35,101.92c-1.55,5.55,1.88,12.56,0.33,18.11c-1.75,6.24-8.48,11.03-10.23,17.27
					c-0.05,0.25-0.14,0.41-0.26,0.43c-0.26,0.06-3.13-4.8-6.03-9.74c-3.89-6.62-9.35-12.18-15.91-16.17l-4.08-2.49
					c-1.19-1.27-2.49-6.56-1.43-7.94l12.13-21.32c0.83-1.09,12.84-19.44,18.69-13.73c2.78,2.71,6.28,8.9,7.41,12.13
					C249.97,81.35,249.17,99.07,248.35,101.92z"/>
			</g>
		</g>
	</g>
</g>
</svg>
